<svg fill="none" height="52" viewBox="0 0 68 52" width="68" xmlns="http://www.w3.org/2000/svg"><path d="m56.7751 4.58562c-4.2746-1.96138-8.8585-3.40645-13.6513-4.234095-.0872-.015973-.1744.023945-.2194.103783-.5895 1.048522-1.2425 2.416412-1.6998 3.491572-5.1549-.77175-10.2834-.77175-15.3326 0-.4574-1.09906-1.1341-2.44305-1.7263-3.491572-.045-.077174-.1322-.117093-.2194-.103783-4.7902.825005-9.3741 2.270065-13.6513 4.234095-.0371.01597-.0688.0426-.0899.07718-8.69468 12.9897-11.076519 25.6601-9.908066 38.1734.005287.0613.039652.1198.087237.157 5.736519 4.2128 11.293329 6.7703 16.746929 8.4655.0873.0267.1797-.0053.2353-.0771 1.29-1.7617 2.44-3.6193 3.426-5.5728.0582-.1144.0026-.2501-.1163-.2953-1.824-.692-3.5609-1.5356-5.2316-2.4936-.1322-.0772-.1427-.2662-.0212-.3567.3516-.2635.7033-.5376 1.039-.8144.0607-.0505.1454-.0612.2168-.0292 10.976 5.0112 22.8588 5.0112 33.7053 0 .0714-.0346.156-.0239.2194.0266.3358.2768.6874.5535 1.0416.817.1216.0905.1136.2795-.0185.3567-1.6707.9766-3.4076 1.8016-5.2343 2.4909-.1189.0453-.1718.1836-.1136.298 1.0071 1.9507 2.1571 3.8083 3.4233 5.5701.0529.0745.1481.1065.2353.0798 5.4801-1.6952 11.0369-4.2527 16.7734-8.4655.0502-.0372.082-.0931.0873-.1543 1.3984-14.4668-2.3423-27.0333-9.9161-38.17346-.0185-.03722-.0501-.06385-.0872-.07982zm-34.3635 30.63128c-3.3045 0-6.0274-3.0338-6.0274-6.7596s2.6701-6.7596 6.0274-6.7596c3.3837 0 6.0801 3.0604 6.0272 6.7596 0 3.7258-2.67 6.7596-6.0272 6.7596zm22.2851 0c-3.3044 0-6.0273-3.0338-6.0273-6.7596s2.67-6.7596 6.0273-6.7596c3.3838 0 6.0802 3.0604 6.0274 6.7596 0 3.7258-2.6436 6.7596-6.0274 6.7596z" fill="#fff"/></svg>