<svg fill="none" height="39" viewBox="0 0 101 39" width="101" xmlns="http://www.w3.org/2000/svg"><rect fill="#000" height="35.8615" rx="10.2941" stroke="#fff" stroke-width="2.76559" width="97.0254" x="1.61721" y="1.61721"/><g fill="#fff"><path d="m19.6295 19.1297c0-.5588.453-1.0118 1.0117-1.0118h10.1135c.5587 0 1.0133.4531 1.0002 1.0117-.0206.8791-.0688 1.6964-.1445 2.4519-.104 1.038-.312 2.0019-.624 2.8916-.4368 1.2499-1.0296 2.3621-1.7784 3.3365-.7488.9533-1.6328 1.7583-2.652 2.415-.9984.6355-2.1009 1.1228-3.3073 1.4617-1.2064.339-2.4752.5084-3.8064.5084-1.8304 0-3.5048-.3071-5.0233-.9215-1.4976-.6143-2.7872-1.4723-3.8688-2.5738-1.08161-1.1228-1.92402-2.4574-2.52723-4.0038-.6032-1.5676-.90481-3.2942-.90481-5.1795 0-1.8642.29121-3.5696.87361-5.116.60321-1.5676 1.44562-2.9022 2.52723-4.0038 1.1024-1.10156 2.4232-1.95951 3.9624-2.57385 1.5393-.61434 3.2553-.92151 5.1481-.92151 2.4544 0 4.6072.54019 6.4585 1.62058 1.5854.92526 2.8886 2.28558 3.9095 4.08098.2853.5016.0451 1.1271-.4867 1.3513l-3.8867 1.6387c-.518.2184-1.1071-.0322-1.3796-.5238-.4674-.8437-1.0282-1.4797-1.6822-1.9079-.8528-.5719-1.8304-.8579-2.9328-.8579-.9152 0-1.7472.18-2.496.5402-.7488.3389-1.3936.8367-1.9345 1.4935-.52.6355-.936 1.4087-1.248 2.3196-.2912.9109-.4368 1.9278-.4368 3.0505 0 1.0169.1248 1.9595.3744 2.8281.2704.8685.6656 1.6206 1.1856 2.2561.5201.6355 1.1649 1.1333 1.9345 1.4935.7696.3389 1.664.5084 2.6832.5084.6032 0 1.1856-.0636 1.7472-.1907.5616-.1482 1.0608-.3707 1.4976-.6673.4576-.3177.832-.7202 1.1232-1.2075.1179-.1971.2204-.4116.3076-.6435.2175-.5785-.2701-1.1359-.8882-1.1359h-2.8381c-.5587 0-1.0117-.453-1.0117-1.0118z"/><path d="m34.3736 31.5276c-.6253 0-1.1008-.5614-.998-1.1781l3.6563-21.93571c.0813-.48784.5034-.8454.998-.8454h4.4906c.4237 0 .8026.26408.9492.66165l3.5148 9.53006c.3258.8832 1.5754.8818 1.8993-.0021l3.49-9.52591c.1461-.39864.5255-.6637.95-.6637h4.489c.4946 0 .9167.35756.998.8454l3.6563 21.93571c.1028.6167-.3727 1.1781-.9979 1.1781h-4.0159c-.5019 0-.928-.368-1.001-.8646l-1.3572-9.2293c-.1502-1.0214-1.5539-1.1884-1.9395-.2308l-3.9026 9.6909c-.1542.3829-.5257.6338-.9385.6338h-1.054c-.4194 0-.7953-.2587-.945-.6504l-3.6415-9.524c-.3721-.9731-1.7945-.8166-1.946.2141l-1.3376 9.0957c-.073.4966-.4991.8646-1.001.8646z"/><path clip-rule="evenodd" d="m63.4592 13.3392c0-3.35266 2.7179-6.07052 6.0705-6.07052h17.506c3.3526 0 6.0705 2.71785 6.0705 6.07052v4.3801c0 2.0739-1.6812 3.755-3.755 3.755s-3.755 1.6812-3.755 3.755v1.2366c0 2.7568-2.2348 4.9916-4.9916 4.9916h-4.8403c-2.7568 0-4.9916-2.2348-4.9916-4.9916v-1.3348c0-2.0196-1.6371-3.6568-3.6567-3.6568s-3.6568-1.6372-3.6568-3.6567zm11.9713 1.4296c0 2.5795-1.9099 4.6706-4.2658 4.6706-2.356 0-4.2659-2.0911-4.2659-4.6706 0-2.5794 1.9099-4.6705 4.2659-4.6705 2.3559 0 4.2658 2.0911 4.2658 4.6705zm9.9077 4.6706c2.3559 0 4.2658-2.091 4.2658-4.6705s-1.9099-4.6705-4.2658-4.6705c-2.356 0-4.2659 2.091-4.2659 4.6705s1.9099 4.6705 4.2659 4.6705zm-11.2557 2.2801c0-.5863.4752-1.0615 1.0614-1.0615h.4648c1.1725 0 2.1229.9505 2.1229 2.1229v.4648c0 .5862-.4752 1.0615-1.0614 1.0615h-.4648c-1.1725 0-2.1229-.9505-2.1229-2.123zm6.8364-1.0828c-1.1725 0-2.1229.9505-2.1229 2.123v.4648c0 .5862.4752 1.0614 1.0614 1.0614h.4648c1.1725 0 2.1229-.9505 2.1229-2.1229v-.4648c0-.5862-.4752-1.0615-1.0614-1.0615z" fill-rule="evenodd"/></g></svg>