<svg fill="none" height="361" viewBox="0 0 666 361" width="666" xmlns="http://www.w3.org/2000/svg"><g fill="#fff"><path d="m171.832 47.002c0-1.3354 1.082-2.418 2.418-2.418h43.448c1.336 0 2.42 1.0829 2.401 2.4182-.057 4.0213-.258 7.7251-.604 11.1114-.413 4.0547-1.241 7.8199-2.482 11.2954-1.738 4.8822-4.096 9.2266-7.075 13.033-2.979 3.7238-6.496 6.8683-10.551 9.4335-3.972 2.4825-8.357 4.3858-13.157 5.7098-4.799 1.324-9.847 1.9859-15.143 1.9859-7.282 0-13.943-1.1998-19.984-3.5996-5.958-2.3997-11.089-5.7511-15.392-10.0541-4.303-4.3857-7.654-9.5989-10.054-15.6397-2.399-6.1235-3.599-12.8676-3.599-20.2323 0-7.282 1.158-13.9433 3.475-19.9841 2.4-6.1235 5.751-11.3367 10.054-15.6397 4.386-4.303 9.641-7.65433 15.764-10.05408 6.124-2.39974 12.95-3.599615 20.481-3.599615 9.764 0 18.329 2.110115 25.693 6.330355 6.717 3.84874 12.16 9.62444 16.33 17.32714.663 1.2244.086 2.734-1.2 3.2665l-18.491 7.655c-1.23.5092-2.631-.0773-3.226-1.2681-1.999-4.0029-4.479-6.9557-7.439-8.8583-3.392-2.2343-7.282-3.3514-11.667-3.3514-3.641 0-6.951.7034-9.93 2.1101-2.979 1.324-5.545 3.2686-7.696 5.8339-2.069 2.4825-3.724 5.5028-4.965 9.0611-1.159 3.5582-1.738 7.5302-1.738 11.9159 0 3.972.497 7.6544 1.49 11.0471 1.075 3.3928 2.648 6.3304 4.716 8.8129 2.069 2.4825 4.634 4.4271 7.696 5.8339 3.062 1.324 6.62 1.986 10.675 1.986 2.4 0 4.717-.2483 6.951-.7448 2.234-.5792 4.22-1.4481 5.958-2.6066 1.82-1.2413 3.31-2.8135 4.468-4.7168.748-1.2281 1.34-2.6285 1.778-4.2011.396-1.4257-.752-2.7498-2.231-2.7498h-14.754c-1.336 0-2.418-1.0826-2.418-2.418z"/><path d="m251.076 50.1696c0 3.7238.704 7.1579 2.11 10.3024 1.407 3.1445 3.31 5.8752 5.71 8.1922s5.172 4.1375 8.316 5.4615c3.228 1.2412 6.62 1.8619 10.179 1.8619 3.558 0 6.909-.6207 10.054-1.8619 3.227-1.324 6.041-3.1445 8.44-5.4615 2.483-2.317 4.427-5.0477 5.834-8.1922s2.11-6.5786 2.11-10.3024c0-3.7237-.703-7.1578-2.11-10.3023s-3.351-5.8753-5.834-8.1923c-2.399-2.3169-5.213-4.0961-8.44-5.3373-3.145-1.324-6.496-1.986-10.054-1.986-3.559 0-6.951.662-10.179 1.986-3.144 1.2412-5.916 3.0204-8.316 5.3373-2.4 2.317-4.303 5.0478-5.71 8.1923-1.406 3.1445-2.11 6.5786-2.11 10.3023zm-25.445 0c0-6.951 1.282-13.4054 3.848-19.3634 2.565-6.0408 6.123-11.2954 10.674-15.7639 4.552-4.4684 9.972-7.94394 16.261-10.42643 6.371-2.56524 13.364-3.847865 20.977-3.847865 7.53 0 14.481 1.282625 20.853 3.847865 6.371 2.48249 11.833 5.95803 16.384 10.42643 4.634 4.4685 8.234 9.7231 10.799 15.7639 2.565 5.958 3.848 12.4124 3.848 19.3634s-1.283 13.4469-3.848 19.4876c-2.565 5.958-6.165 11.1712-10.799 15.6397-4.551 4.4685-10.013 7.9854-16.384 10.5506-6.372 2.4825-13.323 3.7237-20.853 3.7237-7.613 0-14.606-1.2412-20.977-3.7237-6.289-2.5652-11.709-6.0821-16.261-10.5506-4.551-4.4685-8.109-9.6817-10.674-15.6397-2.566-6.0407-3.848-12.5366-3.848-19.4876z"/><path d="m361.837 50.1696c0 3.7238.704 7.1579 2.11 10.3024 1.407 3.1445 3.31 5.8752 5.71 8.1922s5.172 4.1375 8.317 5.4615c3.227 1.2412 6.62 1.8619 10.178 1.8619s6.909-.6207 10.054-1.8619c3.227-1.324 6.041-3.1445 8.44-5.4615 2.483-2.317 4.427-5.0477 5.834-8.1922s2.11-6.5786 2.11-10.3024c0-3.7237-.703-7.1578-2.11-10.3023s-3.351-5.8753-5.834-8.1923c-2.399-2.3169-5.213-4.0961-8.44-5.3373-3.145-1.324-6.496-1.986-10.054-1.986s-6.951.662-10.178 1.986c-3.145 1.2412-5.917 3.0204-8.317 5.3373-2.4 2.317-4.303 5.0478-5.71 8.1923-1.406 3.1445-2.11 6.5786-2.11 10.3023zm-25.445 0c0-6.951 1.282-13.4054 3.848-19.3634 2.565-6.0408 6.123-11.2954 10.674-15.7639 4.552-4.4684 9.972-7.94394 16.261-10.42643 6.371-2.56524 13.364-3.847865 20.977-3.847865 7.53 0 14.481 1.282625 20.853 3.847865 6.371 2.48249 11.833 5.95803 16.384 10.42643 4.634 4.4685 8.234 9.7231 10.799 15.7639 2.565 5.958 3.848 12.4124 3.848 19.3634s-1.283 13.4469-3.848 19.4876c-2.565 5.958-6.165 11.1712-10.799 15.6397-4.551 4.4685-10.013 7.9854-16.384 10.5506-6.372 2.4825-13.323 3.7237-20.853 3.7237-7.613 0-14.606-1.2412-20.977-3.7237-6.289-2.5652-11.709-6.0821-16.261-10.5506-4.551-4.4685-8.109-9.6817-10.674-15.6397-2.566-6.0407-3.848-12.5366-3.848-19.4876z"/><path d="m471.672 73.9419c0 1.3355 1.082 2.418 2.418 2.418h3.167c4.22 0 7.985-.662 11.295-1.986s6.083-3.1445 8.317-5.4614c2.317-2.317 4.055-5.0478 5.213-8.1923 1.241-3.2272 1.862-6.7441 1.862-10.5506 0-3.7237-.621-7.1992-1.862-10.4264-1.241-3.2273-3.02-5.9994-5.337-8.3164-2.235-2.317-5.007-4.1375-8.317-5.4615s-7.033-1.986-11.171-1.986h-3.167c-1.336 0-2.418 1.0826-2.418 2.418zm-24.329-68.14926c0-1.33543 1.083-2.41801 2.418-2.41801h33.578c6.372 0 12.33 1.28262 17.874 3.84786 5.627 2.56524 10.509 5.99931 14.647 10.30231 4.22 4.2203 7.53 9.1853 9.93 14.895 2.4 5.627 3.599 11.5436 3.599 17.7498 0 6.1235-1.199 12.0401-3.599 17.7499-2.317 5.6269-5.586 10.5919-9.806 14.8949-4.137 4.303-9.02 7.7371-14.647 10.3024-5.544 2.5652-11.543 3.8478-17.998 3.8478h-33.578c-1.335 0-2.418-1.0826-2.418-2.418z"/><path d="m3.31011 207.868c-1.49713 0-2.634476-1.346-2.383906-2.822l15.066996-88.754c.1974-1.163 1.2046-2.014 2.3839-2.014h20.3634c1.0074 0 1.9093.625 2.2635 1.568l15.8829 42.284c.7861 2.093 3.7475 2.09 4.529-.005l15.774-42.274c.3528-.946 1.256-1.573 2.2654-1.573h20.3594c1.1793 0 2.1863.851 2.3843 2.014l15.067 88.754c.25 1.476-.887 2.822-2.384 2.822h-19.2586c-1.1972 0-2.2141-.876-2.3914-2.06l-6.4601-43.134c-.3638-2.428-3.6967-2.831-4.6285-.559l-18.1498 44.253c-.3723.907-1.2561 1.5-2.2371 1.5h-6.4067c-.9968 0-1.8915-.611-2.2532-1.54l-17.0789-43.86c-.8994-2.309-4.2775-1.932-4.6446.519l-6.4133 42.821c-.1773 1.184-1.1942 2.06-2.3913 2.06z"/><path d="m145.515 161.073c0 3.724.703 7.158 2.11 10.303 1.407 3.144 3.31 5.875 5.71 8.192s5.172 4.137 8.316 5.461c3.227 1.242 6.62 1.862 10.178 1.862 3.559 0 6.91-.62 10.054-1.862 3.228-1.324 6.041-3.144 8.441-5.461 2.482-2.317 4.427-5.048 5.834-8.192 1.407-3.145 2.11-6.579 2.11-10.303s-.703-7.158-2.11-10.302c-1.407-3.145-3.352-5.875-5.834-8.192-2.4-2.317-5.213-4.096-8.441-5.338-3.144-1.324-6.495-1.986-10.054-1.986-3.558 0-6.951.662-10.178 1.986-3.144 1.242-5.916 3.021-8.316 5.338s-4.303 5.047-5.71 8.192c-1.407 3.144-2.11 6.578-2.11 10.302zm-25.446 0c0-6.951 1.283-13.405 3.848-19.363 2.565-6.041 6.124-11.296 10.675-15.764 4.551-4.469 9.971-7.944 16.26-10.427 6.372-2.565 13.364-3.847 20.977-3.847 7.531 0 14.482 1.282 20.853 3.847 6.372 2.483 11.834 5.958 16.385 10.427 4.634 4.468 8.233 9.723 10.799 15.764 2.565 5.958 3.847 12.412 3.847 19.363s-1.282 13.447-3.847 19.488c-2.566 5.958-6.165 11.171-10.799 15.64-4.551 4.468-10.013 7.985-16.385 10.55-6.371 2.483-13.322 3.724-20.853 3.724-7.613 0-14.605-1.241-20.977-3.724-6.289-2.565-11.709-6.082-16.26-10.55-4.551-4.469-8.11-9.682-10.675-15.64-2.565-6.041-3.848-12.537-3.848-19.488z"/><path d="m235.051 207.868c-1.336 0-2.418-1.082-2.418-2.418v-88.754c0-1.335 1.082-2.418 2.418-2.418h20.734c.743 0 1.444.341 1.902.925l39.887 50.796c1.419 1.806 4.32.803 4.32-1.494v-47.809c0-1.335 1.083-2.418 2.418-2.418h19.369c1.335 0 2.418 1.083 2.418 2.418v88.754c0 1.336-1.083 2.418-2.418 2.418h-20.611c-.742 0-1.443-.341-1.902-.924l-39.887-50.796c-1.419-1.806-4.32-.803-4.32 1.493v47.809c0 1.336-1.082 2.418-2.418 2.418z"/><path d="m359.577 145.766c0 2.31 2.928 3.305 4.335 1.474l24.605-32.017c.458-.596 1.166-.945 1.917-.945h23.668c2.053 0 3.172 2.397 1.854 3.971l-32.499 38.802c-.747.893-.753 2.191-.012 3.09l36.054 43.772c1.299 1.577.177 3.955-1.867 3.955h-25.222c-.746 0-1.449-.343-1.907-.931l-26.601-34.112c-1.415-1.814-4.325-.813-4.325 1.487v31.138c0 1.336-1.082 2.418-2.418 2.418h-19.492c-1.336 0-2.418-1.082-2.418-2.418v-88.754c0-1.335 1.082-2.418 2.418-2.418h19.492c1.336 0 2.418 1.083 2.418 2.418z"/><path d="m482.774 132.465c0 1.335-1.083 2.418-2.418 2.418h-24.085c-1.336 0-2.418 1.082-2.418 2.418v10.804c0 1.335 1.082 2.418 2.418 2.418h22.471c1.336 0 2.418 1.082 2.418 2.418v15.768c0 1.336-1.082 2.418-2.418 2.418h-22.471c-1.336 0-2.418 1.083-2.418 2.418v11.301c0 1.335 1.082 2.418 2.418 2.418h24.085c1.335 0 2.418 1.082 2.418 2.418v15.768c0 1.336-1.083 2.418-2.418 2.418h-48.414c-1.335 0-2.418-1.082-2.418-2.418v-88.754c0-1.335 1.083-2.418 2.418-2.418h48.414c1.335 0 2.418 1.083 2.418 2.418z"/><path d="m522.905 163.699c0-.497-.153-.982-.439-1.389l-31.025-44.225c-1.124-1.602.022-3.807 1.98-3.807h23.115c.8 0 1.549.397 1.999 1.059l14.651 21.558c.962 1.414 3.048 1.411 4.004-.007l14.538-21.544c.449-.666 1.2-1.066 2.004-1.066h23.1c1.959 0 3.105 2.208 1.977 3.81l-31.135 44.221c-.287.407-.441.894-.441 1.392v41.749c0 1.336-1.082 2.418-2.418 2.418h-19.492c-1.335 0-2.418-1.082-2.418-2.418z"/><path d="m625.121 183.596c-.973 1.611.188 3.668 2.07 3.668h32.521c1.336 0 2.418 1.082 2.418 2.418v15.768c0 1.336-1.082 2.418-2.418 2.418h-73.345c-1.886 0-3.046-2.061-2.067-3.673l39.852-65.639c.979-1.612-.181-3.673-2.067-3.673h-30.15c-1.335 0-2.418-1.083-2.418-2.418v-15.769c0-1.335 1.083-2.418 2.418-2.418h70.752c1.882 0 3.043 2.056 2.07 3.668z"/><path clip-rule="evenodd" d="m272.22 262.113c1.59-16.719 16.433-28.983 33.152-27.393l87.299 8.305c16.719 1.59 28.983 16.433 27.393 33.152l-2.078 21.843c-.984 10.342-10.165 17.928-20.507 16.944s-19.523 6.602-20.506 16.944l-.587 6.167c-1.308 13.748-13.513 23.832-27.26 22.524l-24.138-2.296c-13.747-1.308-23.832-13.512-22.524-27.26l.633-6.656c.958-10.072-6.43-19.013-16.501-19.971s-17.459-9.899-16.501-19.97zm59.022 12.81c-1.223 12.863-11.74 22.385-23.488 21.267-11.749-1.117-20.281-12.451-19.058-25.314 1.224-12.864 11.74-22.385 23.489-21.268 11.749 1.118 20.281 12.452 19.057 25.315zm47.192 27.993c11.749 1.117 22.265-8.405 23.489-21.268 1.223-12.863-7.309-24.197-19.058-25.315-11.749-1.117-22.265 8.405-23.488 21.268-1.224 12.863 7.308 24.197 19.057 25.315zm-57.214 6.028c.278-2.923 2.874-5.068 5.797-4.79l2.318.221c5.847.556 10.136 5.747 9.579 11.594l-.22 2.317c-.278 2.924-2.874 5.068-5.797 4.79l-2.318-.22c-5.847-.557-10.136-5.747-9.579-11.594zm34.605-2.161c-5.847-.556-11.038 3.733-11.594 9.58l-.22 2.318c-.278 2.923 1.866 5.518 4.79 5.797l2.317.22c5.847.556 11.038-3.733 11.594-9.58l.22-2.317c.279-2.924-1.866-5.519-4.789-5.797z" fill-rule="evenodd"/></g></svg>