<svg fill="none" height="175" viewBox="0 0 182 175" width="182" xmlns="http://www.w3.org/2000/svg"><g fill="#000"><path d="m11.6624 75.4629.4336 2.9357c.6337 4.2904 4.0027 7.6594 8.2931 8.2931l2.9358.4336-2.9358.4336c-4.2904.6337-7.6594 4.0027-8.2931 8.2931l-.4336 2.9357-.4336-2.9357c-.6337-4.2904-4.00266-7.6594-8.29304-8.2931l-2.93576-.4336 2.93576-.4336c4.29038-.6337 7.65934-4.0027 8.29304-8.2931z"/><path d="m169.741 76.8999.433 2.9358c.634 4.2904 4.003 7.6593 8.294 8.293l2.935.4337-2.935.4336c-4.291.6337-7.66 4.0026-8.294 8.293l-.433 2.936-.434-2.936c-.633-4.2904-4.002-7.6593-8.293-8.293l-2.936-.4336 2.936-.4337c4.291-.6337 7.66-4.0026 8.293-8.293z"/><g clip-rule="evenodd" fill-rule="evenodd"><path d="m80.4269.925425 7.5217-.925425 1.8935 15.3874-4.7551.585-.5372-4.3655c-.258-2.09629-.4624-3.93595-.6153-5.89163-.0499.66427-.1187 1.35289-.2175 2.15481l-.9428 8.38692-3.9769.4892-2.9911-7.90287c-.2633-.71351-.4917-1.32162-.6959-1.91078.3205 1.89116.5628 3.68225.8155 5.73535l.5372 4.3655-4.7551.5851-1.8935-15.38745 7.5217-.92541 1.9284 5.68624c.2042.58916.3867 1.18096.5935 1.79174.0309-.64005.0646-1.25847.1198-1.87951zm-18.0127 11.647275c2.1915 4.648.9815 8.1071-3.6276 10.2799l-6.5592 3.092-6.6118-14.0229 6.6183-3.11984c4.5697-2.15419 7.9887-.87715 10.1803 3.77084zm-8.7103.0619-1.8909.8913 3.1201 6.6175 1.891-.8913c1.8318-.8636 2.1231-2.0841.9808-4.5066-1.1422-2.4225-2.2691-2.9745-4.101-2.1109zm-7.5001 7.8569c3.0995 3.9062 2.4044 8.4602-1.3829 11.4647-3.8043 3.018-8.3806 2.6458-11.48-1.2604-3.086-3.8891-2.3909-8.4431 1.3964-11.4476 3.7872-3.0044 8.3806-2.6458 11.4665 1.2433zm-8.8678 2.0318c-1.433 1.1368-1.7221 2.8394-.0032 5.0057 1.7325 2.1833 3.4563 2.2889 4.8893 1.1521 1.4331-1.1368 1.7222-2.8394-.0103-5.0227-1.7189-2.1663-3.4428-2.2719-4.8758-1.1351zm-4.5811 21.5762c-2.9936 3.8233-7.5301 4.5308-11.4567 1.457-3.9095-3.0603-4.2979-7.6507-1.3177-11.4569 2.9802-3.8061 7.5301-4.5307 11.4396-1.4704 3.9266 3.0738 4.315 7.6641 1.3348 11.4703zm-9.4822-7.4227c-1.1276 1.4402-1.0109 3.1631 1.1668 4.8678 2.1948 1.7181 3.8956 1.4179 5.0232-.0222 1.1277-1.4402 1.0109-3.1632-1.1839-4.8813-2.1776-1.7046-3.8784-1.4045-5.0061.0357zm-7.9873 15.2032c-1.0327.0083-1.855.7106-2.3242 1.741-.8032 1.7637-.2005 3.33 2.2571 4.4489 2.5764 1.173 4.1465.6676 5.0308-1.2744.6498-1.4268.436-2.4811-.5114-3.3431l-1.1912 2.6158-3.0125-1.3715 3.2126-7.0547c.5118.1373 1.0055.3142 1.4811.5307 4.162 1.8949 5.6533 6.1865 3.668 10.5461-1.9582 4.3003-6.2505 6.0544-10.7891 3.9882-4.49883-2.0482-6.0533-6.2011-3.93265-10.8581 1.80485-3.9633 4.87145-5.3903 8.27715-4.7249zm143.2366 2.5633 5.924 2.2884c1.189.4699 2.399.9318 3.632 1.4545-.488-1.1884-.977-2.3768-1.445-3.5731l-1.055-2.6969 3.934-1.5395 4.841 12.3689-3.447 1.3491-6.061-2.3986c-1.161-.4575-2.358-.9476-3.58-1.4986.505 1.229 1.001 2.4377 1.486 3.6746l1.198 3.0618-3.995 1.5633-4.96-12.673zm-134.9588 67.6587-5.9788-2.14c-1.2009-.44-2.4218-.871-3.668-1.363.5181 1.176 1.0362 2.352 1.5342 3.536l1.1227 2.67-3.8944 1.637-5.14908-12.244 3.41258-1.435 6.1182 2.247c1.1724.428 2.3816.888 3.6163 1.408-.535-1.216-1.0616-2.412-1.5765-3.636l-1.2746-3.031 3.9546-1.663 5.2757 12.545zm9.2202 7.087-4.8681 3.335-4.8687 9.883-3.0038-4.382 1.0504-1.934c.6253-1.168 1.21-2.202 1.8373-3.213-1.1443.256-2.2831.482-3.5609.698l-2.1337.354-2.9669-4.329 10.8641-1.136 4.8681-3.336zm.97 18.027 1.064-1.091-5.1614-5.031 2.8425-2.916 5.1614 5.031 1.0185-1.044-5.5825-5.442 2.9489-3.024 9.1066 8.876-10.8228 11.101-9.1066-8.876 2.9489-3.025zm16.4843-1.069-.2225 6.741 2.729-.85 1.9457-3.072 4.1579 2.633-8.2958 13.098-4.1579-2.633 3.2507-5.132-7.3166 2.557-4.8018-3.04 7.9716-2.453-.0069-10.855zm15.0605 7.929 1.2521 6.281c.2099 1.043.387 1.982.5159 2.928.5457-1.747 1.1107-3.418 1.7687-5.287l.8387-2.382 4.5191 1.59-5.1478 14.624-4.8272-1.699-1.1904-6.259c-.1772-.94-.3231-2.099-.4486-3.251-.5818 1.85-1.1963 3.595-1.8977 5.588l-.8386 2.382-4.5192-1.59 5.1478-14.624zm9.365 11.239c.5299-4.958 4.2194-7.717 9.0264-7.203 4.8287.516 7.83 3.99 7.3002 8.948-.5276 4.936-4.2171 7.695-9.0241 7.182-4.807-.514-7.8301-3.99-7.3025-8.927zm7.7468 4.77c1.8188.194 3.2191-.817 3.5129-3.567.2962-2.771-.8587-4.055-2.6776-4.249-1.8189-.195-3.219.816-3.5153 3.588-.2938 2.749.8611 4.033 2.68 4.228zm15.5203-11.347.6453 4.351c.3098 2.089.5598 3.923.7612 5.875.0333-.666.0851-1.356.164-2.16l.7342-8.407 3.964-.588 3.186 7.826c.281.707.524 1.309.743 1.893-.367-1.883-.654-3.667-.958-5.713l-.645-4.351 4.739-.703 2.275 15.336-7.497 1.111-2.068-5.636c-.219-.584-.416-1.171-.638-1.777-.015.641-.034 1.26-.073 1.882l-.301 5.988-7.4962 1.112-2.2745-15.336zm22.7507 2.834c-2.307-4.592-1.184-8.08 3.37-10.368l6.48-3.255 6.96 13.854-6.538 3.284c-4.515 2.268-7.964 1.077-10.272-3.515zm8.706-.28 1.869-.938-3.285-6.538-1.868.939c-1.81.909-2.071 2.136-.868 4.529 1.202 2.394 2.343 2.917 4.152 2.008zm7.3-8.041c-3.195-3.828-2.613-8.397 1.099-11.495 3.728-3.111 8.312-2.852 11.507.976 3.181 3.812 2.599 8.382-1.113 11.479-3.711 3.097-8.312 2.852-11.493-.96zm8.814-2.25c1.405-1.172 1.652-2.881-.12-5.004-1.786-2.14-3.512-2.203-4.916-1.031-1.405 1.172-1.652 2.881.134 5.021 1.772 2.123 3.498 2.186 4.902 1.014zm4.047-21.682c2.898-3.896 7.415-4.716 11.417-1.74 3.984 2.963 4.486 7.542 1.6 11.421-2.885 3.879-7.415 4.715-11.399 1.753-4.002-2.976-4.503-7.555-1.618-11.434zm9.662 7.186c1.092-1.468.933-3.187-1.286-4.837-2.237-1.664-3.93-1.322-5.021.146-1.092 1.468-.933 3.187 1.304 4.85 2.219 1.651 3.912 1.309 5.003-.159zm7.609-15.399c1.032-.034 1.837-.756 2.28-1.798.759-1.783.117-3.334-2.367-4.391-2.605-1.109-4.162-.564-4.998 1.399-.614 1.443-.374 2.492.595 3.33l1.125-2.645 3.046 1.296-3.035 7.132c-.515-.124-1.013-.288-1.494-.493-4.208-1.79-5.806-6.043-3.93-10.451 1.85-4.348 6.097-6.209 10.686-4.257 4.548 1.936 6.206 6.048 4.202 10.757-1.705 4.007-4.735 5.51-8.156 4.93zm-17.339-73.9771 4.95-3.2138 5.113-9.7587 2.894 4.4558-1.099 1.9073c-.654 1.1517-1.264 2.1711-1.916 3.1658 1.15-.2278 2.294-.4253 3.577-.6092l2.142-.3003 2.858 4.401-10.889.8654-4.949 3.2138zm-.525-18.0478-1.09 1.0648 5.036 5.1565-2.914 2.8447-5.036-5.1564-1.044 1.0193 5.447 5.577-3.022 2.9513-8.886-9.0978 11.094-10.8314 8.885 9.0978-3.023 2.9513zm-16.504.6629.389-6.733-2.749.7814-2.021 3.0229-4.091-2.7352 8.617-12.8878 4.092 2.7351-3.377 5.0502 7.377-2.3756 4.725 3.1587-8.03 2.2539-.262 10.8518zm-14.86-8.3014-1.095-6.3102c-.184-1.0483-.337-1.9919-.442-2.9404-.589 1.7328-1.196 3.389-1.901 5.241l-.898 2.3608-4.478-1.7029 5.512-14.49045 4.784 1.819 1.033 6.28695c.154.9436.271 2.1063.367 3.2612.628-1.8346 1.286-3.5645 2.037-5.5386l.898-2.36079 4.478 1.70292-5.512 14.49047zm-9.081-11.47113c-.653 4.94343-4.41 7.61013-9.2031 6.97713-4.8145-.6357-7.7287-4.1833-7.0757-9.12677.6501-4.9218 4.4071-7.58848 9.1998-6.955544 4.793.632884 7.729 4.183334 7.079 9.105184zm-7.626-4.96047c-1.8138-.23948-3.2388.73642-3.6009 3.47795-.3649 2.76315.7577 4.07545 2.5712 4.31495 1.8137.2395 3.2387-.7364 3.6037-3.49955.362-2.74159-.761-4.05388-2.574-4.29335z"/><path d="m44.1138 73.5695c0-10.6764 8.6549-19.3313 19.3313-19.3313h55.7469c10.677 0 19.332 8.6549 19.332 19.3314v13.9484c0 6.604-5.354 11.9577-11.958 11.9577s-11.958 5.3533-11.958 11.9573v3.938c0 8.779-7.116 15.896-15.8952 15.896h-15.4138c-8.7789 0-15.8956-7.117-15.8956-15.896v-4.251c0-6.431-5.2135-11.6443-11.6448-11.6443s-11.6448-5.2136-11.6448-11.6449zm38.1222 4.5517c0 8.2142-6.0819 14.8731-13.5844 14.8731s-13.5844-6.6589-13.5844-14.8731c0-8.2143 6.0819-14.8732 13.5844-14.8732s13.5844 6.6589 13.5844 14.8732zm31.55 14.8731c7.503 0 13.585-6.6589 13.585-14.8731 0-8.2143-6.082-14.8732-13.585-14.8732-7.502 0-13.584 6.6589-13.584 14.8732 0 8.2142 6.082 14.8731 13.584 14.8731zm-35.8409 7.2607c0-1.8671 1.5134-3.3805 3.3802-3.3805h1.4801c3.7336 0 6.7603 3.0268 6.7603 6.7605v1.48c0 1.867-1.5133 3.38-3.3802 3.38h-1.48c-3.7337 0-6.7604-3.027-6.7604-6.76zm21.7711-3.4493c-3.7336 0-6.7603 3.0268-6.7603 6.7603v1.48c0 1.867 1.5133 3.38 3.3801 3.38h1.4801c3.7339 0 6.7599-3.026 6.7599-6.76v-1.48c0-1.8669-1.513-3.3803-3.38-3.3803z"/></g></g></svg>