<svg fill="none" height="292" viewBox="0 0 297 292" width="297" xmlns="http://www.w3.org/2000/svg"><g fill="#fff"><path d="m19.0942 125.988.7099 4.807c1.0375 7.024 6.5533 12.54 13.5777 13.577l4.8065.71-4.8065.71c-7.0244 1.038-12.5402 6.554-13.5777 13.578l-.7099 4.807-.71-4.807c-1.0375-7.024-6.5533-12.54-13.57766-13.578l-4.80654-.71 4.80654-.71c7.02436-1.037 12.54016-6.553 13.57766-13.577z"/><path d="m277.906 128.341.71 4.806c1.037 7.025 6.553 12.541 13.578 13.578l4.806.71-4.806.71c-7.025 1.037-12.541 6.553-13.578 13.578l-.71 4.806-.71-4.806c-1.038-7.025-6.553-12.541-13.578-13.578l-4.806-.71 4.806-.71c7.025-1.037 12.54-6.553 13.578-13.578z"/><g clip-rule="evenodd" fill-rule="evenodd"><path d="m131.678 3.95282 12.315-1.51514 3.1 25.19282-7.785.9578-.88-7.1474c-.422-3.4321-.757-6.4441-1.007-9.646-.082 1.0876-.195 2.215-.357 3.5279l-1.543 13.7314-6.511.801-4.897-12.9389c-.431-1.1682-.805-2.1638-1.14-3.1284.525 3.0963.922 6.0287 1.335 9.3901l.88 7.1474-7.785.9579-3.1-25.19287 12.315-1.51511 3.157 9.30968c.334.9646.633 1.9336.971 2.9335.051-1.0479.106-2.0604.197-3.0772zm-29.491 19.06938c3.588 7.6099 1.607 13.2732-5.9395 16.8305l-10.7389 5.0623-10.8251-22.9586 10.8357-5.108c7.4818-3.5269 13.0795-1.4361 16.6678 6.1738zm-14.2609.1012-3.0959 1.4593 5.1084 10.8345 3.096-1.4594c2.9991-1.4138 3.4759-3.4121 1.6058-7.3783-1.8701-3.9661-3.7152-4.87-6.7143-3.4561zm-12.2795 12.8637c5.0746 6.3954 3.9365 13.8514-2.2642 18.7704-6.2285 4.9411-13.7209 4.3319-18.7955-2.0635-5.0525-6.3674-3.9144-13.8235 2.2862-18.7425 6.2007-4.919 13.721-4.3319 18.7735 2.0356zm-14.5187 3.3266c-2.3462 1.8612-2.8196 4.6487-.0053 8.1954 2.8365 3.5747 5.6589 3.7476 8.0051 1.8863 2.3462-1.8612 2.8196-4.6487-.0169-8.2234-2.8143-3.5467-5.6368-3.7196-7.9829-1.8583zm-7.5003 35.3253c-4.9012 6.2597-12.3285 7.4179-18.7574 2.3855-6.4007-5.0106-7.0366-12.526-2.1573-18.7577 4.8792-6.2315 12.3285-7.4179 18.7292-2.4074 6.4289 5.0325 7.0647 12.5479 2.1855 18.7796zm-15.5246-12.1528c-1.8462 2.3579-1.6551 5.1788 1.9102 7.9698 3.5935 2.8129 6.3781 2.3215 8.2243-.0364s1.655-5.1788-1.9383-7.9917c-3.5654-2.791-6.35-2.2996-8.1962.0583zm-13.0772 24.8912c-1.6908.0137-3.037 1.1634-3.8053 2.8505-1.3149 2.8876-.3281 5.4521 3.6954 7.2839 4.2183 1.9205 6.7889 1.0931 8.2368-2.0865 1.0638-2.336.7137-4.0622-.8374-5.4735l-1.9502 4.2827-4.9322-2.2454 5.2598-11.5502c.8379.2248 1.6462.5144 2.4249.8689 6.8141 3.1023 9.2557 10.1287 6.0053 17.2665-3.2061 7.0407-10.2335 9.9127-17.6642 6.5297-7.3657-3.354-9.9107-10.1528-6.4387-17.7773 2.9549-6.4889 7.9756-8.8253 13.5517-7.736zm234.5122 4.1968 9.698 3.7467c1.948.7692 3.929 1.5255 5.948 2.3813-.8-1.9457-1.6-3.8913-2.366-5.85l-1.728-4.4154 6.441-2.5205 7.926 20.2507-5.644 2.209-9.922-3.927c-1.901-.749-3.862-1.552-5.861-2.454.826 2.012 1.638 3.991 2.431 6.016l1.962 5.013-6.541 2.56-8.121-20.749zm-220.9594 110.7728-9.7888-3.503c-1.9661-.72-3.965-1.426-6.0053-2.231.8482 1.925 1.6965 3.85 2.5119 5.789l1.8381 4.37-6.3761 2.681-8.4303-20.046 5.5873-2.349 10.0169 3.678c1.9194.701 3.8993 1.454 5.9206 2.306-.8759-1.991-1.7379-3.949-2.581-5.954l-2.0868-4.962 6.4746-2.722 8.6375 20.539zm15.0955 11.603-7.9701 5.461-7.9713 16.181-4.9179-7.175 1.7197-3.167c1.0238-1.911 1.9811-3.605 3.0082-5.259-1.8735.419-3.7379.789-5.83 1.142l-3.4934.579-4.8575-7.087 17.7871-1.859 7.9701-5.462zm1.5882 29.516 1.7421-1.787-8.4505-8.237 4.6539-4.774 8.4504 8.237 1.6675-1.71-9.1398-8.909 4.828-4.952 14.9097 14.532-17.7195 18.176-14.9097-14.532 4.8281-4.953zm26.9888-1.751-.3644 11.036 4.468-1.391 3.1857-5.029 6.8075 4.31-13.5823 21.444-6.8075-4.31 5.3223-8.403-11.9791 4.187-7.8616-4.978 13.0514-4.015-.0114-17.772zm24.6579 12.981 2.05 10.283c.343 1.709.633 3.247.844 4.795.894-2.86 1.819-5.596 2.896-8.656l1.373-3.901 7.399 2.604-8.428 23.943-7.903-2.782-1.949-10.247c-.29-1.538-.529-3.437-.735-5.323-.952 3.028-1.959 5.887-3.1068 9.149l-1.373 3.9-7.399-2.603 8.4281-23.943zm15.332 18.402c.868-8.118 6.908-12.635 14.779-11.794 7.905.845 12.819 6.532 11.952 14.65-.864 8.082-6.905 12.599-14.775 11.758s-12.819-6.532-11.956-14.614zm12.684 7.808c2.978.318 5.27-1.337 5.751-5.839.485-4.537-1.406-6.639-4.384-6.957s-5.27 1.337-5.755 5.874c-.481 4.502 1.41 6.604 4.388 6.922zm25.41-18.576 1.057 7.123c.507 3.421.916 6.424 1.246 9.618.054-1.089.139-2.219.268-3.535l1.203-13.766 6.489-.962 5.216 12.813c.46 1.158.859 2.144 1.217 3.1-.601-3.083-1.071-6.004-1.568-9.354l-1.056-7.124 7.759-1.15 3.724 25.108-12.274 1.819-3.387-9.228c-.358-.956-.681-1.917-1.044-2.908-.025 1.048-.054 2.062-.12 3.081l-.492 9.803-12.273 1.82-3.724-25.107zm37.249 4.639c-3.777-7.518-1.939-13.229 5.517-16.974l10.609-5.33 11.396 22.682-10.705 5.377c-7.391 3.713-13.04 1.763-16.817-5.755zm14.254-.458 3.058-1.536-5.377-10.704-3.059 1.537c-2.963 1.488-3.39 3.498-1.421 7.416s3.836 4.775 6.799 3.287zm11.951-13.165c-5.232-6.267-4.278-13.749 1.799-18.82 6.104-5.093 13.609-4.669 18.84 1.598 5.208 6.241 4.255 13.722-1.822 18.793s-13.609 4.67-18.817-1.571zm14.431-3.684c2.299-1.919 2.704-4.717-.197-8.193-2.924-3.503-5.75-3.606-8.049-1.688-2.3 1.919-2.704 4.717.22 8.221 2.901 3.476 5.727 3.579 8.026 1.66zm6.625-35.499c4.745-6.378 12.141-7.72 18.692-2.848 6.523 4.851 7.345 12.348 2.621 18.698-4.724 6.351-12.141 7.721-18.664 2.87-6.551-4.872-7.373-12.369-2.649-18.72zm15.82 11.766c1.787-2.403 1.527-5.218-2.107-7.92-3.661-2.724-6.433-2.164-8.22.239-1.788 2.403-1.527 5.218 2.135 7.942 3.633 2.702 6.405 2.141 8.192-.261zm12.457-25.211c1.69-.056 3.007-1.239 3.733-2.945 1.243-2.92.192-5.459-3.876-7.189-4.265-1.815-6.814-.924-8.182 2.291-1.005 2.362-.612 4.079.974 5.451l1.843-4.33 4.986 2.121-4.969 11.678c-.844-.203-1.659-.473-2.446-.808-6.89-2.931-9.506-9.894-6.435-17.111 3.029-7.118 9.983-10.165 17.496-6.968 7.447 3.168 10.161 9.902 6.88 17.61-2.792 6.561-7.752 9.022-13.354 8.072zm-28.387-121.1192 8.103-5.2618 8.371-15.9772 4.738 7.2951-1.798 3.1228c-1.071 1.8856-2.07 3.5546-3.138 5.1831 1.884-.3729 3.757-.6964 5.857-.9974l3.506-.4917 4.68 7.2055-17.827 1.4168-8.104 5.2618zm-.86-29.5486-1.785 1.7435 8.245 8.4424-4.77 4.6575-8.245-8.4424-1.709 1.6688 8.917 9.131-4.949 4.8319-14.547-14.8953 18.162-17.7336 14.547 14.8954-4.948 4.8319zm-27.022 1.0854.638-11.0234-4.501 1.2793-3.309 4.9491-6.699-4.4781 14.11-21.1004 6.698 4.478-5.529 8.2683 12.079-3.8894 7.736 5.1715-13.147 3.6902-.429 17.767zm-24.329-13.5914-1.792-10.3312c-.301-1.7162-.552-3.2611-.725-4.8141-.964 2.8369-1.958 5.5485-3.111 8.5807l-1.47 3.8652-7.332-2.7881 9.025-23.72424 7.831 2.97814 1.692 10.2931c.252 1.545.443 3.4486.601 5.3394 1.028-3.0035 2.105-5.8358 3.335-9.0679l1.47-3.8652 7.331 2.7881-9.024 23.7242zm-14.868-18.7809c-1.069 8.0936-7.22 12.4595-15.067 11.4233-7.883-1.0409-12.654-6.8491-11.585-14.9427 1.065-8.0582 7.216-12.42418 15.063-11.38791 7.847 1.03618 12.653 6.84911 11.589 14.90731zm-12.486-8.1214c-2.969-.3921-5.302 1.2057-5.895 5.6942-.597 4.5239 1.241 6.6725 4.21 7.0646s5.302-1.2057 5.9-5.7296c.593-4.4886-1.245-6.6371-4.215-7.0292z"/><path d="m72.2246 122.888c0-17.48 14.1702-31.6502 31.6504-31.6502h91.271c17.48 0 31.65 14.1702 31.65 31.6502v22.837c0 10.812-8.765 19.577-19.578 19.577-10.812 0-19.577 8.765-19.577 19.578v6.447c0 14.373-11.652 26.025-26.025 26.025h-25.236c-14.373 0-26.025-11.652-26.025-26.025v-6.959c0-10.53-8.536-19.066-19.0651-19.066-10.5295 0-19.0653-8.536-19.0653-19.065zm62.4144 7.452c0 13.449-9.957 24.351-22.24 24.351-12.284 0-22.2413-10.902-22.2413-24.351 0-13.448 9.9573-24.351 22.2413-24.351 12.283 0 22.24 10.903 22.24 24.351zm51.656 24.351c12.283 0 22.241-10.902 22.241-24.351 0-13.448-9.958-24.351-22.241-24.351s-22.241 10.903-22.241 24.351c0 13.449 9.958 24.351 22.241 24.351zm-58.681 11.887c0-3.056 2.478-5.534 5.534-5.534h2.423c6.113 0 11.069 4.955 11.069 11.068v2.424c0 3.056-2.478 5.534-5.534 5.534h-2.424c-6.112 0-11.068-4.956-11.068-11.069zm35.645-5.646c-6.113 0-11.069 4.955-11.069 11.068v2.423c0 3.057 2.478 5.534 5.534 5.534h2.424c6.113 0 11.068-4.955 11.068-11.068v-2.423c0-3.057-2.478-5.534-5.534-5.534z"/></g></g></svg>