<svg fill="none" height="134" viewBox="0 0 158 134" width="158" xmlns="http://www.w3.org/2000/svg"><path clip-rule="evenodd" d="m.584563 49.1255c-2.480203-17.303 9.536037-33.3404 26.838937-35.8206l90.3475-12.950482c17.303-2.480208 33.341 9.536002 35.821 26.838982l3.24 22.6059c1.534 10.7029-5.898 20.6231-16.601 22.1572-10.703 1.5342-18.136 11.4543-16.602 22.1572l.915 6.3823c2.039 14.228-7.841 27.415-22.069 29.454l-24.9806 3.581c-14.2277 2.039-27.4148-7.841-29.4542-22.069l-.9874-6.889c-1.4941-10.4231-11.1547-17.6614-21.5776-16.1674-10.423 1.494-20.08361-5.7443-21.57764-16.1673zm62.840737-1.4794c1.9082 13.3125-6.4017 25.5174-18.5607 27.2602-12.159 1.7429-23.5628-7.6362-25.471-20.9487-1.9082-13.3126 6.4017-25.5174 18.5607-27.2603 12.159-1.7428 23.5628 7.6362 25.471 20.9488zm54.5877 16.7751c12.159-1.7429 20.469-13.9477 18.561-27.2603-1.908-13.3125-13.312-22.6916-25.471-20.9487s-20.4689 13.9477-18.5607 27.2602c1.9082 13.3126 13.3117 22.6917 25.4707 20.9488zm-56.4002 20.093c-.4337-3.0256 1.6674-5.8298 4.6929-6.2635l2.3987-.3438c6.051-.8673 11.6595 3.3348 12.5269 9.3859l.3438 2.3987c.4337 3.0255-1.6674 5.8297-4.6929 6.2634l-2.3988.3438c-6.051.8674-11.6594-3.3348-12.5268-9.3858zm34.4827-10.6473c-6.0511.8673-10.2532 6.4758-9.3859 12.5268l.3438 2.3987c.4337 3.0255 3.2379 5.1266 6.2635 4.693l2.3987-.3439c6.0514-.8673 10.2534-6.4758 9.3854-12.5268l-.343-2.3987c-.434-3.0255-3.238-5.1266-6.2638-4.693z" fill="#fff" fill-rule="evenodd"/></svg>