<svg fill="none" height="287" viewBox="0 0 298 287" width="298" xmlns="http://www.w3.org/2000/svg"><g fill="#fff"><path d="m19.8925 124.174.7099 4.806c1.0375 7.025 6.5533 12.54 13.5777 13.578l4.8065.71-4.8065.71c-7.0244 1.037-12.5402 6.553-13.5777 13.577l-.7099 4.807-.7099-4.807c-1.0376-7.024-6.5534-12.54-13.57772-13.577l-4.80654-.71 4.80654-.71c7.02432-1.038 12.54012-6.553 13.57772-13.578z"/><path d="m278.704 126.527.71 4.806c1.038 7.024 6.553 12.54 13.578 13.578l4.806.71-4.806.71c-7.025 1.037-12.54 6.553-13.578 13.577l-.71 4.807-.71-4.807c-1.037-7.024-6.553-12.54-13.577-13.577l-4.807-.71 4.807-.71c7.024-1.038 12.54-6.554 13.577-13.578z"/><path clip-rule="evenodd" d="m132.476 2.13831 12.315-1.515141 3.1 25.192831-7.785.9578-.88-7.1474c-.422-3.4321-.757-6.4441-1.007-9.64599-.082 1.08759-.194 2.21499-.356 3.52789l-1.544 13.7314-6.511.801-4.897-12.9389c-.431-1.1682-.805-2.1638-1.139-3.1284.524 3.0963.921 6.0287 1.335 9.3901l.879 7.1474-7.785.9579-3.1-25.19288 12.315-1.51511 3.157 9.30969c.334.9646.633 1.9335.972 2.9335.05-1.0479.105-2.0604.196-3.0772zm-29.491 19.06939c3.588 7.6099 1.607 13.2732-5.9392 16.8305l-10.7389 5.0623-10.8251-22.9587 10.8357-5.1079c7.4818-3.5269 13.0795-1.4361 16.6675 6.1738zm-14.2606.1012-3.096 1.4593 5.1084 10.8345 3.0961-1.4594c2.9991-1.4138 3.4759-3.4121 1.6058-7.3783s-3.7152-4.87-6.7143-3.4561zm-12.2795 12.8637c5.0746 6.3954 3.9365 13.8514-2.2642 18.7704-6.2285 4.9411-13.7209 4.3319-18.7955-2.0635-5.0525-6.3674-3.9144-13.8235 2.2862-18.7425 6.2007-4.919 13.721-4.3318 18.7735 2.0356zm-14.5187 3.3266c-2.3462 1.8611-2.8196 4.6487-.0053 8.1954 2.8365 3.5747 5.6589 3.7475 8.0051 1.8863s2.8196-4.6487-.0169-8.2234c-2.8143-3.5467-5.6368-3.7196-7.9829-1.8583zm-7.5003 35.3253c-4.9012 6.2597-12.3285 7.4179-18.7574 2.3855-6.4007-5.0106-7.0366-12.526-2.1573-18.7577 4.8792-6.2315 12.3285-7.4179 18.7292-2.4074 6.4289 5.0325 7.0648 12.5479 2.1855 18.7796zm-15.5246-12.1528c-1.8462 2.3579-1.6551 5.1788 1.9102 7.9698 3.5935 2.8129 6.3781 2.3215 8.2243-.0364s1.655-5.1788-1.9383-7.9917c-3.5654-2.791-6.35-2.2996-8.1962.0583zm-13.0772 24.8912c-1.6908.0137-3.037 1.1634-3.8053 2.8505-1.3149 2.8876-.3281 5.4521 3.6954 7.2839 4.2183 1.9205 6.7889 1.0931 8.2368-2.0865 1.0638-2.336.7137-4.0622-.8374-5.4735l-1.9502 4.2827-4.9322-2.2454 5.2598-11.5502c.8379.2247 1.6462.5144 2.4249.8689 6.8141 3.1023 9.2557 10.1287 6.0053 17.2665-3.2061 7.0402-10.2335 9.9122-17.6642 6.5292-7.3657-3.3531-9.9107-10.1523-6.4387-17.7769 2.9549-6.4888 7.9756-8.8252 13.5517-7.7359zm234.5129 4.1968 9.698 3.7466c1.947.7693 3.928 1.5256 5.948 2.3814-.8-1.9457-1.6-3.8914-2.367-5.85l-1.728-4.4154 6.441-2.5205 7.926 20.2512-5.644 2.208-9.922-3.927c-1.901-.749-3.862-1.551-5.861-2.4533.826 2.0123 1.639 3.9913 2.431 6.0163l1.962 5.013-6.54 2.559-8.122-20.7485zm-220.9601 110.7733-9.7888-3.503c-1.9661-.72-3.965-1.427-6.0053-2.232.8482 1.925 1.6965 3.85 2.5119 5.789l1.8381 4.371-6.3761 2.681-8.4303-20.046 5.5873-2.35 10.0169 3.678c1.9194.701 3.8993 1.454 5.9206 2.306-.8758-1.991-1.7379-3.949-2.581-5.953l-2.0868-4.962 6.4746-2.723 8.6375 20.539zm15.0955 11.602-7.9701 5.462-7.9713 16.18-4.9179-7.175 1.7197-3.166c1.0238-1.912 1.9811-3.605 3.0083-5.26-1.8736.42-3.738.79-5.8301 1.143l-3.4934.578-4.8575-7.087 17.7871-1.859 7.9701-5.462zm1.5882 29.516 1.7421-1.787-8.4505-8.236 4.6539-4.774 8.4504 8.237 1.6675-1.711-9.1398-8.908 4.828-4.953 14.9097 14.533-17.7195 18.175-14.9097-14.532 4.8281-4.952zm26.9888-1.751-.3644 11.036 4.468-1.39 3.1857-5.03 6.8075 4.311-13.5823 21.444-6.8075-4.311 5.3223-8.403-11.9791 4.188-7.8616-4.978 13.0514-4.015-.0114-17.773zm24.6576 12.982 2.05 10.283c.343 1.708.634 3.246.845 4.794.893-2.86 1.818-5.595 2.895-8.656l1.373-3.9 7.399 2.604-8.428 23.942-7.903-2.781-1.949-10.248c-.29-1.538-.529-3.436-.734-5.322-.953 3.028-1.959 5.886-3.107 9.148l-1.3735 3.901-7.3989-2.604 8.428-23.943zm15.333 18.401c.867-8.117 6.908-12.635 14.778-11.794 7.906.845 12.82 6.533 11.952 14.65-.864 8.082-6.904 12.6-14.774 11.759-7.871-.841-12.82-6.533-11.956-14.615zm12.683 7.809c2.978.318 5.27-1.337 5.751-5.839.485-4.537-1.406-6.64-4.383-6.958-2.978-.318-5.271 1.337-5.756 5.875-.481 4.501 1.41 6.604 4.388 6.922zm25.41-18.576 1.057 7.123c.507 3.42.916 6.423 1.246 9.618.055-1.09.14-2.219.269-3.536l1.202-13.765 6.489-.962 5.217 12.813c.46 1.157.858 2.143 1.216 3.099-.601-3.082-1.071-6.004-1.567-9.354l-1.057-7.123 7.759-1.151 3.724 25.108-12.273 1.82-3.387-9.228c-.358-.956-.681-1.917-1.045-2.909-.024 1.049-.054 2.062-.119 3.081l-.493 9.804-12.273 1.82-3.723-25.108zm37.249 4.638c-3.777-7.518-1.938-13.229 5.517-16.974l10.609-5.329 11.396 22.681-10.705 5.378c-7.391 3.712-13.039 1.762-16.817-5.756zm14.254-.457 3.059-1.537-5.378-10.703-3.059 1.536c-2.963 1.488-3.389 3.498-1.421 7.416 1.969 3.919 3.836 4.776 6.799 3.288zm11.951-13.165c-5.231-6.268-4.278-13.749 1.799-18.82 6.104-5.094 13.609-4.67 18.84 1.598 5.209 6.24 4.255 13.722-1.822 18.793-6.077 5.07-13.609 4.669-18.817-1.571zm14.431-3.684c2.3-1.919 2.704-4.717-.197-8.193-2.924-3.504-5.75-3.607-8.049-1.688s-2.704 4.717.22 8.22c2.901 3.476 5.727 3.579 8.026 1.661zm6.625-35.499c4.745-6.379 12.141-7.721 18.693-2.848 6.522 4.85 7.344 12.348 2.62 18.698-4.723 6.35-12.141 7.72-18.664 2.87-6.551-4.872-7.372-12.37-2.649-18.72zm15.82 11.765c1.788-2.403 1.527-5.218-2.106-7.92-3.662-2.723-6.434-2.163-8.221.24s-1.527 5.218 2.135 7.941c3.633 2.702 6.405 2.142 8.192-.261zm12.458-25.211c1.69-.056 3.007-1.239 3.733-2.945 1.242-2.919.192-5.458-3.877-7.189-4.264-1.815-6.814-.923-8.182 2.292-1.005 2.361-.612 4.078.974 5.45l1.843-4.33 4.986 2.122-4.969 11.678c-.843-.204-1.659-.473-2.446-.808-6.889-2.932-9.506-9.895-6.435-17.111 3.03-7.119 9.983-10.165 17.496-6.969 7.447 3.169 10.161 9.902 6.881 17.611-2.792 6.561-7.753 9.022-13.355 8.072zm-28.388-121.1187 8.103-5.2618 8.371-15.9772 4.738 7.2951-1.797 3.1228c-1.071 1.8856-2.071 3.5546-3.139 5.1831 1.884-.3729 3.757-.6964 5.857-.9974l3.507-.4917 4.68 7.2055-17.828 1.4168-8.103 5.2618zm-.859-29.5486-1.786 1.7435 8.245 8.4424-4.77 4.6575-8.245-8.4424-1.709 1.6688 8.917 9.131-4.948 4.8319-14.547-14.8953 18.162-17.7336 14.547 14.8954-4.949 4.8319zm-27.022 1.0854.637-11.0234-4.501 1.2793-3.309 4.9491-6.698-4.4781 14.109-21.1004 6.698 4.478-5.528 8.2683 12.079-3.8894 7.735 5.1715-13.146 3.6902-.43 17.767zm-24.33-13.5914-1.792-10.3312c-.301-1.7163-.552-3.2611-.724-4.8141-.965 2.8369-1.958 5.5485-3.112 8.5807l-1.47 3.8652-7.331-2.7881 9.024-23.72424 7.831 2.97813 1.692 10.29311c.252 1.545.443 3.4485.601 5.3394 1.028-3.0035 2.106-5.8358 3.335-9.0679l1.47-3.8652 7.332 2.7881-9.025 23.7242zm-14.868-18.7809c-1.069 8.0935-7.22 12.4595-15.067 11.4233-7.882-1.0409-12.654-6.8491-11.584-14.9427 1.064-8.05819 7.215-12.42418 15.062-11.38792 7.847 1.03618 12.654 6.8491 11.589 14.90732zm-12.485-8.12144c-2.969-.39209-5.302 1.20564-5.895 5.69424-.598 4.5239 1.24 6.6725 4.209 7.0646 2.97.3921 5.303-1.2057 5.9-5.7296.593-4.4886-1.245-6.63716-4.214-7.02924z" fill-rule="evenodd"/></g></svg>