<svg width="281" height="281" viewBox="0 0 281 281" fill="none" xmlns="http://www.w3.org/2000/svg">
<path d="M2.43153 142.733L3.81628 147.39C5.83998 154.196 12.0826 158.873 19.1831 158.904L24.0418 158.924L19.3846 160.309C12.5785 162.333 7.90115 168.575 7.87082 175.676L7.85006 180.535L6.46531 175.877C4.44162 169.071 -1.80103 164.394 -8.90153 164.364L-13.7602 164.343L-9.10299 162.958C-2.29692 160.934 2.38046 154.692 2.41078 147.591L2.43153 142.733Z" fill="white"/>
<path d="M258.959 108.339L260.343 112.996C262.367 119.802 268.61 124.479 275.71 124.51L280.569 124.531L275.912 125.915C269.106 127.939 264.428 134.182 264.398 141.282L264.377 146.141L262.992 141.484C260.969 134.678 254.726 130 247.626 129.97L242.767 129.949L247.424 128.564C254.23 126.541 258.907 120.298 258.938 113.197L258.959 108.339Z" fill="white"/>
<path fill-rule="evenodd" clip-rule="evenodd" d="M96.5606 5.95742L108.536 2.71028L115.179 27.2084L107.609 29.2611L105.724 22.3108C104.819 18.9733 104.06 16.0394 103.358 12.9053C103.431 13.9935 103.48 15.1255 103.506 16.4481L103.926 30.2595L97.5948 31.9763L90.9114 19.8632C90.3188 18.768 89.8074 17.8355 89.3397 16.9281C90.2983 19.9186 91.1072 22.7651 91.9936 26.0338L93.8784 32.9841L86.3078 35.0369L79.6645 10.5388L91.6397 7.29163L96.086 16.0592C96.5537 16.9666 96.987 17.8833 97.464 18.8251C97.3655 17.7806 97.2764 16.7706 97.2216 15.7512L96.5606 5.95742ZM70.0736 29.0184C74.7051 36.0422 73.5477 41.9293 66.5825 46.5213L56.6706 53.0562L42.6974 31.8657L52.6987 25.272C59.6043 20.7191 65.442 21.9946 70.0736 29.0184ZM55.9715 31.142L53.114 33.0258L59.708 43.0258L62.5656 41.142C65.3338 39.3169 65.5223 37.2711 63.1083 33.6104C60.6944 29.9497 58.7397 29.3169 55.9715 31.142ZM45.6416 45.6178C51.5723 51.2285 51.5035 58.7705 46.0636 64.5197C40.5992 70.2945 33.0961 70.7545 27.1654 65.1439C21.2606 59.5578 21.3293 52.0157 26.7692 46.2667C32.2092 40.5176 39.7367 40.0317 45.6416 45.6178ZM31.7417 50.9708C29.6834 53.1461 29.6103 55.9726 32.8994 59.0841C36.2144 62.2201 39.0327 61.9908 41.091 59.8155C43.1495 57.6402 43.2225 54.8137 39.9075 51.6777C36.6185 48.5662 33.8 48.7955 31.7417 50.9708ZM29.3296 87.003C25.3661 93.8947 18.1783 96.0952 11.1005 92.0258C4.05358 87.9741 2.35778 80.625 6.30348 73.764C10.2491 66.9032 17.4547 64.6719 24.5016 68.7235C31.5795 72.7929 33.2753 80.142 29.3296 87.003ZM12.2377 77.1759C10.7448 79.7719 11.3342 82.5372 15.2594 84.794C19.2157 87.0686 21.9024 86.187 23.3953 83.591C24.8883 80.995 24.2988 78.2298 20.3427 75.9552C16.4174 73.6984 13.7307 74.5799 12.2377 77.1759ZM2.82462 103.671C1.15289 103.924 -0.0165363 105.253 -0.537653 107.032C-1.42958 110.077 -0.0889225 112.476 4.15386 113.718C8.60197 115.021 11.0292 113.837 12.0112 110.484C12.7328 108.021 12.1414 106.362 10.4057 105.185L9.08285 109.701L3.88203 108.178L7.44972 95.9984C8.31098 96.102 9.15224 96.274 9.9734 96.5145C17.1588 98.6185 20.5726 105.227 18.3678 112.754C16.1932 120.178 9.64432 124.018 1.80882 121.724C-5.95817 119.45 -9.4422 113.08 -7.08715 105.04C-5.0828 98.1978 -0.444419 95.1727 5.22978 95.4598L2.82462 103.671ZM235.56 74.5502L245.692 76.8829C247.729 77.368 249.796 77.8356 251.917 78.3962C250.849 76.5837 249.781 74.7712 248.745 72.9411L246.407 68.8156L252.426 65.4066L263.145 84.328L257.871 87.3153L247.493 84.8357C245.504 84.364 243.45 83.8479 241.343 83.2386C242.446 85.1133 243.531 86.9568 244.603 88.8489L247.256 93.5327L241.145 96.9944L230.162 77.6078L235.56 74.5502ZM32.5534 215.554L22.3666 213.476C20.3182 213.042 18.2393 212.626 16.1054 212.119C17.2181 213.904 18.331 215.689 19.4133 217.493L21.8529 221.558L15.9217 225.117L4.73242 206.47L9.92983 203.352L20.3672 205.571C22.3667 205.993 24.4334 206.457 26.5552 207.014C25.4057 205.167 24.2745 203.351 23.1555 201.487L20.3857 196.871L26.4085 193.257L37.873 212.363L32.5534 215.554ZM49.1425 224.898L42.0279 231.435L36.4331 248.583L30.5469 242.178L31.7999 238.799C32.5421 236.762 33.2495 234.95 34.0314 233.166C32.2363 233.847 30.4433 234.478 28.4225 235.125L25.0466 236.193L19.2326 229.867L36.5759 225.503L43.6905 218.965L49.1425 224.898ZM54.9026 253.89L56.3735 251.874L46.8398 244.919L50.7692 239.534L60.3029 246.488L61.7108 244.558L51.3995 237.037L55.4759 231.449L72.2968 243.719L57.3355 264.225L40.5146 251.955L44.5912 246.368L54.9026 253.89ZM81.3698 248.327L82.5751 259.303L86.8005 257.293L89.2404 251.862L96.5906 255.163L86.1884 278.317L78.8382 275.016L82.9143 265.943L71.6506 271.788L63.1622 267.975L75.5118 262.149L72.9789 244.558L81.3698 248.327ZM107.62 257.678L111.108 267.567C111.691 269.209 112.196 270.69 112.625 272.193C113.103 269.235 113.631 266.396 114.263 263.214L115.069 259.157L122.762 260.685L117.816 285.581L109.598 283.95L106.215 274.082C105.71 272.601 105.204 270.756 104.733 268.918C104.22 272.05 103.629 275.023 102.955 278.414L102.15 282.471L94.4563 280.943L99.4018 256.047L107.62 257.678ZM125.408 273.718C125.115 265.56 130.454 260.231 138.364 259.947C146.309 259.661 151.981 264.594 152.274 272.753C152.565 280.875 147.227 286.204 139.317 286.488C131.407 286.773 125.7 281.841 125.408 273.718ZM139.071 279.648C142.064 279.541 144.099 277.577 143.936 273.052C143.772 268.492 141.602 266.679 138.609 266.787C135.616 266.895 133.582 268.858 133.746 273.418C133.908 277.943 136.078 279.756 139.071 279.648ZM161.589 257.654L163.645 264.556C164.633 267.87 165.464 270.784 166.244 273.899C166.143 272.813 166.067 271.683 166.008 270.361L165.245 256.565L171.532 254.692L178.514 266.635C179.133 267.715 179.668 268.635 180.158 269.53C179.125 266.565 178.246 263.739 177.279 260.493L175.222 253.592L182.739 251.352L189.988 275.678L178.097 279.221L173.435 270.566C172.945 269.671 172.489 268.765 171.989 267.835C172.113 268.877 172.227 269.885 172.308 270.902L173.211 280.677L161.32 284.219L154.072 259.894L161.589 257.654ZM199.119 256.961C194.313 250.055 195.323 244.141 202.171 239.376L211.917 232.595L226.416 253.43L216.583 260.272C209.793 264.996 203.925 263.867 199.119 256.961ZM213.164 254.485L215.973 252.531L209.131 242.698L206.322 244.653C203.6 246.547 203.463 248.597 205.967 252.196C208.472 255.795 210.442 256.379 213.164 254.485ZM223.126 239.758C217.058 234.296 216.94 226.755 222.236 220.873C227.556 214.965 235.045 214.32 241.113 219.782C247.154 225.22 247.272 232.761 241.976 238.643C236.68 244.525 229.167 245.197 223.126 239.758ZM236.888 234.063C238.892 231.838 238.895 229.011 235.53 225.982C232.139 222.928 229.327 223.227 227.324 225.453C225.32 227.678 225.316 230.506 228.708 233.559C232.073 236.588 234.885 236.289 236.888 234.063ZM238.409 197.984C242.201 190.996 249.332 188.619 256.509 192.512C263.653 196.388 265.531 203.693 261.756 210.65C257.981 217.606 250.833 220.015 243.688 216.138C236.512 212.245 234.635 204.94 238.409 197.984ZM255.739 207.385C257.167 204.753 256.51 202.004 252.53 199.844C248.519 197.668 245.854 198.616 244.426 201.248C242.998 203.88 243.655 206.63 247.667 208.806C251.646 210.965 254.311 210.017 255.739 207.385ZM264.493 180.662C266.158 180.367 267.294 179.009 267.77 177.217C268.586 174.151 267.186 171.787 262.913 170.651C258.434 169.46 256.037 170.704 255.139 174.08C254.479 176.56 255.112 178.204 256.876 179.337L258.086 174.79L263.323 176.182L260.061 188.447C259.197 188.365 258.352 188.214 257.525 187.994C250.289 186.07 246.712 179.549 248.728 171.969C250.716 164.493 257.167 160.491 265.058 162.589C272.879 164.669 276.521 170.949 274.367 179.045C272.535 185.936 267.973 189.076 262.294 188.93L264.493 180.662ZM219.207 64.7965L226.482 58.4381L232.501 41.4347L238.226 47.9838L236.89 51.3301C236.097 53.3486 235.345 55.1424 234.519 56.9061C236.33 56.2697 238.138 55.6837 240.175 55.0877L243.576 54.1034L249.231 60.572L231.785 64.5041L224.51 70.8624L219.207 64.7965ZM214.164 35.6688L212.643 37.6479L222.003 44.835L217.942 50.1222L208.582 42.9352L207.127 44.8296L217.25 52.6029L213.037 58.088L196.524 45.4076L211.986 25.2764L228.499 37.957L224.286 43.4421L214.164 35.6688ZM187.569 40.5773L186.636 29.5749L182.362 31.48L179.789 36.8486L172.523 33.3662L183.495 10.4773L190.761 13.9596L186.462 22.9287L197.866 17.3648L206.258 21.3863L193.768 26.9046L195.864 44.5527L187.569 40.5773ZM161.557 30.5755L158.317 20.6032C157.776 18.9469 157.308 17.4533 156.917 15.9405C156.365 18.8856 155.766 21.7107 155.055 24.8759L154.148 28.9106L146.495 27.1909L152.062 2.42625L160.237 4.26309L163.372 14.212C163.84 15.7057 164.3 17.5628 164.724 19.4121C165.316 16.2931 165.98 13.3366 166.739 9.96272L167.646 5.92804L175.299 7.64767L169.732 32.4123L161.557 30.5755ZM144.175 14.0943C144.265 22.2576 138.796 27.4522 130.881 27.5398C122.931 27.6279 117.384 22.5554 117.294 14.392C117.204 6.26437 122.673 1.06978 130.588 0.982154C138.502 0.894423 144.085 5.96653 144.175 14.0943ZM130.663 7.82655C127.669 7.85972 125.586 9.77234 125.636 14.2996C125.686 18.8625 127.811 20.7286 130.806 20.6954C133.8 20.6622 135.883 18.7496 135.832 14.1867C135.782 9.65934 133.658 7.79337 130.663 7.82655Z" fill="white"/>
</svg>
