<svg fill="none" height="54" viewBox="0 0 138 54" width="138" xmlns="http://www.w3.org/2000/svg"><rect height="49.3395" rx="14.163" stroke="#fff" stroke-width="3.80499" width="133.491" x="2.0975" y="2.72055"/><g fill="#fff"><path d="m26.8795 26.8149c0-.7687.6232-1.392 1.392-1.392h13.9144c.7688 0 1.3941.6234 1.3761 1.392-.0284 1.2094-.0946 2.3339-.1987 3.3734-.1431 1.4281-.4293 2.7543-.8586 3.9784-.6009 1.7196-1.4166 3.2497-2.4468 4.5904-1.0302 1.3116-2.2465 2.4191-3.6487 3.3227-1.3737.8743-2.8904 1.5447-4.5502 2.011-1.6599.4664-3.4055.6995-5.2371.6995-2.5183 0-4.8221-.4226-6.9111-1.2678-2.0605-.8452-3.8348-2.0257-5.3229-3.5412-1.4881-1.5448-2.6472-3.3809-3.4771-5.5086-.8299-2.1568-1.24485-4.5322-1.24485-7.1261 0-2.5649.40065-4.9111 1.20195-7.0388.8299-2.1567 1.9889-3.9929 3.477-5.5085 1.5168-1.5156 3.334-2.696 5.4517-3.5412 2.1177-.8453 4.4787-1.26787 7.0829-1.26787 3.3769 0 6.3388.74327 8.8858 2.22967 2.1812 1.273 3.9742 3.1446 5.3788 5.6147.3926.6902.0621 1.5507-.6696 1.8592l-5.3474 2.2546c-.7127.3005-1.5233-.0443-1.8981-.7207-.6432-1.1608-1.4146-2.0358-2.3144-2.6249-1.1734-.7869-2.5184-1.1804-4.0351-1.1804-1.2592 0-2.4039.2478-3.4341.7432-1.0303.4664-1.9174 1.1513-2.6615 2.0548-.7154.8744-1.2878 1.9382-1.717 3.1915-.4007 1.2532-.601 2.6522-.601 4.197 0 1.399.1717 2.696.5151 3.8909.372 1.195.9158 2.2297 1.6312 3.1041.7155.8743 1.6026 1.5593 2.6615 2.0547 1.0588.4664 2.2894.6995 3.6916.6995.8299 0 1.6312-.0874 2.4039-.2623.7727-.204 1.4595-.51 2.0605-.9181.6296-.4371 1.1447-.9909 1.5453-1.6613.1622-.2712.3032-.5663.4231-.8853.2994-.796-.3715-1.5629-1.2219-1.5629h-3.9047c-.7688 0-1.392-.6232-1.392-1.392z"/><path d="m47.1647 43.8724c-.8602 0-1.5145-.7724-1.373-1.6209l5.0305-30.1799c.1119-.6712.6926-1.1632 1.3731-1.1632h6.1782c.5831 0 1.1043.3634 1.3061.9104l4.8358 13.1117c.4481 1.2152 2.1675 1.2133 2.613-.0028l4.8017-13.1061c.201-.5485.723-.9132 1.3071-.9132h6.176c.6805 0 1.2612.492 1.3731 1.1632l5.0306 30.1799c.1414.8485-.5129 1.6209-1.3731 1.6209h-5.5252c-.6905 0-1.2767-.5063-1.3772-1.1895l-1.8673-12.6981c-.2066-1.4052-2.1379-1.635-2.6684-.3175l-5.3693 13.333c-.2122.5269-.7232.8721-1.2912.8721h-1.4502c-.577 0-1.0941-.356-1.3002-.8949l-5.01-13.1035c-.5119-1.3388-2.4689-1.1235-2.6774.2946l-1.8403 12.5143c-.1005.6832-.6867 1.1895-1.3772 1.1895z"/><path clip-rule="evenodd" d="m87.1818 18.8481c0-4.6127 3.7394-8.352 8.352-8.352h24.0852c4.613 0 8.352 3.7393 8.352 8.352v6.0264c0 2.8532-2.313 5.1662-5.166 5.1662s-5.166 2.313-5.166 5.1663v1.7013c0 3.7929-3.075 6.8676-6.868 6.8676h-6.659c-3.793 0-6.868-3.0747-6.868-6.8676v-1.8365c0-2.7786-2.2525-5.0311-5.0311-5.0311s-5.0311-2.2525-5.0311-5.0311zm16.4702 1.9667c0 3.5489-2.627 6.4259-5.8687 6.4259-3.2414 0-5.8691-2.877-5.8691-6.4259s2.6277-6.4259 5.8691-6.4259c3.2417 0 5.8687 2.877 5.8687 6.4259zm13.632 6.4259c3.241 0 5.869-2.877 5.869-6.4259s-2.628-6.4259-5.869-6.4259c-3.242 0-5.869 2.877-5.869 6.4259s2.627 6.4259 5.869 6.4259zm-15.486 3.1371c0-.8065.653-1.4603 1.46-1.4603h.639c1.614 0 2.921 1.3076 2.921 2.9207v.6395c0 .8066-.654 1.4604-1.46 1.4604h-.64c-1.613 0-2.92-1.3077-2.92-2.9208zm9.405-1.4895c-1.613 0-2.92 1.3077-2.92 2.9208v.6395c0 .8065.653 1.4604 1.46 1.4604h.639c1.614 0 2.921-1.3077 2.921-2.9208v-.6395c0-.8065-.654-1.4604-1.46-1.4604z" fill-rule="evenodd"/></g></svg>