<svg fill="none" height="54" viewBox="0 0 55 54" width="55" xmlns="http://www.w3.org/2000/svg"><path d="m27.6519 4.83318c7.1593 0 8.0084.02681 10.8372.15641 7.2665.3307 10.6607 3.77851 10.9914 10.99141.1296 2.8266.1542 3.6757.1542 10.835 0 7.1615-.0268 8.0084-.1542 10.835-.3329 7.2062-3.7182 10.6607-10.9914 10.9914-2.8288.1296-3.6735.1564-10.8372.1564-7.1593 0-8.0084-.0268-10.835-.1564-7.28441-.333-10.6607-3.7964-10.99141-10.9937-.1296-2.8266-.15641-3.6734-.15641-10.8349 0-7.1593.02905-8.0062.15641-10.835.33294-7.2107 3.71818-10.66074 10.99141-10.99144 2.8288-.12737 3.6757-.15418 10.835-.15418zm0-4.83318c-7.2822 0-8.1939.0312827-11.054.160882-9.73784.446896-15.14975 5.849868-15.59665 15.596618-.131833 2.8624-.163115 3.7741-.163115 11.0563 0 7.2821.031282 8.196.160882 11.0562.446893 9.7378 5.849863 15.1497 15.596683 15.5966 2.8623.1296 3.774.1609 11.0562.1609s8.1961-.0313 11.0562-.1609c9.7289-.4469 15.1542-5.8498 15.5944-15.5966.1319-2.8602.1631-3.7741.1631-11.0562 0-7.2822-.0312-8.1939-.1608-11.054-.438-9.72894-5.8477-15.149787-15.5945-15.596683-2.8623-.1318343-3.7762-.163117-11.0584-.163117zm0 13.0449c-7.6039 0-13.7689 6.1649-13.7689 13.7689 0 7.6039 6.165 13.771 13.7689 13.771s13.7688-6.1649 13.7688-13.771c0-7.604-6.1649-13.7689-13.7688-13.7689zm0 22.7068c-4.936 0-8.9379-3.9998-8.9379-8.9379 0-4.936 4.0019-8.938 8.9379-8.938s8.9379 4.002 8.9379 8.938c0 4.9381-4.0019 8.9379-8.9379 8.9379zm14.3141-26.46744c-1.7787 0-3.2199 1.44124-3.2199 3.21764s1.4412 3.2177 3.2199 3.2177c1.7764 0 3.2154-1.4413 3.2154-3.2177s-1.439-3.21764-3.2154-3.21764z" fill="#fff"/></svg>