<svg width="66" height="11" viewBox="0 0 66 11" fill="none" xmlns="http://www.w3.org/2000/svg">
<path d="M5.93658 4.64605V6.84405H7.70058C7.42058 7.71205 6.76258 8.03405 5.92258 8.03405C4.64858 8.03405 3.93458 7.20805 3.93458 5.50005C3.93458 3.56805 4.84458 2.95205 5.90858 2.95205C6.65058 2.95205 7.26658 3.24605 7.51858 3.93205H10.7526C10.4306 1.72005 8.55458 0.264054 5.85258 0.264054C2.57658 0.264054 0.658578 2.42005 0.658578 5.44405C0.658578 8.41205 2.36658 10.6941 5.44658 10.6941C6.42658 10.6941 7.68658 10.4701 8.49858 9.39205L8.72258 10.4561H10.7666V4.64605H5.93658ZM18.6274 0.488055L17.8714 4.26805C17.7874 4.66005 17.7174 5.05205 17.6474 5.45805C17.5634 5.05205 17.4934 4.66005 17.4094 4.26805L16.6254 0.488055H11.7534V10.4561H14.8334V7.62805C14.8334 6.29805 14.8194 5.13605 14.7634 3.90405C14.8474 4.29605 14.9454 4.70205 15.0574 5.17805L16.3454 10.4561H18.9214L20.1814 5.17805C20.3074 4.67405 20.4054 4.24005 20.4894 3.82005C20.4334 5.08005 20.4194 6.27005 20.4194 7.62805V10.4561H23.4994V0.488055H18.6274ZM32.9486 0.488055H24.2686V3.20405H27.0266V10.4561H30.1906V3.20405H32.9486V0.488055ZM41.9001 3.20405V0.488055H33.7241V10.4561H41.9001V7.74005H36.8881V6.80205H41.5221V4.18405H36.8881V3.20405H41.9001ZM49.6619 10.4561H52.9379L49.3679 0.488055H45.5039L42.1299 10.4561H45.2939L45.6859 9.15405H49.2699L49.6619 10.4561ZM46.3579 6.84405L47.0439 4.54805L47.4639 3.06405C47.5899 3.55405 47.7439 4.05805 47.8839 4.54805L48.5699 6.84405H46.3579ZM60.1762 0.488055L59.4202 4.26805C59.3362 4.66005 59.2662 5.05205 59.1962 5.45805C59.1122 5.05205 59.0422 4.66005 58.9582 4.26805L58.1742 0.488055H53.3022V10.4561H56.3822V7.62805C56.3822 6.29805 56.3682 5.13605 56.3122 3.90405C56.3962 4.29605 56.4942 4.70205 56.6062 5.17805L57.8942 10.4561H60.4702L61.7302 5.17805C61.8562 4.67405 61.9542 4.24005 62.0382 3.82005C61.9822 5.08005 61.9682 6.27005 61.9682 7.62805V10.4561H65.0482V0.488055H60.1762Z" fill="white"/>
</svg>
