<svg width="41" height="11" viewBox="0 0 41 11" fill="none" xmlns="http://www.w3.org/2000/svg">
<path d="M5.0393 10.6941C8.0353 10.6941 9.5893 9.30805 9.5893 7.16605C9.5893 5.38805 8.4693 4.43605 5.9773 4.08605L4.7733 3.91805C4.1713 3.83405 3.8353 3.63805 3.8353 3.24605C3.8353 2.85405 4.1713 2.60205 5.0393 2.60205C5.9913 2.60205 6.3133 2.95205 6.3833 3.55405H9.3093C9.1273 1.24405 7.5313 0.264054 4.9273 0.264054C1.5113 0.264054 0.685297 1.95805 0.685297 3.52605C0.685297 5.43005 1.9733 6.41005 3.7793 6.66205L4.9833 6.83005C6.0613 6.98405 6.3973 7.20805 6.3973 7.64205C6.3973 8.10405 6.0053 8.32805 5.0953 8.32805C4.2133 8.32805 3.6393 8.10405 3.5693 7.18005H0.447297C0.545297 9.26605 1.9873 10.6941 5.0393 10.6941ZM16.3479 0.488055V3.98805H13.4779V0.488055H10.3139V10.4561H13.4779V6.78805H16.3479V10.4561H19.5119V0.488055H16.3479ZM25.6202 10.6941C28.7282 10.6941 30.8982 8.67805 30.8982 5.47205C30.8982 2.28005 28.7282 0.264054 25.6202 0.264054C22.5122 0.264054 20.3422 2.28005 20.3422 5.47205C20.3422 8.67805 22.4982 10.6941 25.6202 10.6941ZM25.6202 8.00605C24.4442 8.00605 23.6182 7.26405 23.6182 5.47205C23.6182 3.69405 24.4442 2.95205 25.6202 2.95205C26.7962 2.95205 27.6222 3.69405 27.6222 5.47205C27.6222 7.26405 26.7962 8.00605 25.6202 8.00605ZM36.5821 0.488055H31.7241V10.4561H34.8881V7.60005H36.5821C39.0461 7.60005 40.4881 6.20005 40.4881 4.04405C40.4881 1.88805 39.0461 0.488055 36.5821 0.488055ZM36.1621 4.99605H34.8881V3.09205H36.1621C36.8341 3.09205 37.2401 3.41405 37.2401 4.04405C37.2401 4.67405 36.8341 4.99605 36.1621 4.99605Z" fill="white"/>
</svg>
