<svg width="111" height="11" viewBox="0 0 111 11" fill="none" xmlns="http://www.w3.org/2000/svg">
<path d="M12.1398 0.488055L11.5798 3.44205C11.3558 4.61805 11.1458 5.80805 10.9358 6.95605C10.7398 5.80805 10.5018 4.61805 10.2778 3.44205L9.68975 0.488055H6.65175L6.06375 3.44205C5.83975 4.61805 5.60175 5.80805 5.40575 6.95605C5.19575 5.80805 4.98575 4.61805 4.76175 3.44205L4.20175 0.488055H0.96775L3.59975 10.4561H6.98775L7.64575 7.41805C7.84175 6.55005 8.00975 5.68205 8.17775 4.82805C8.33175 5.68205 8.49975 6.55005 8.69575 7.41805L9.35375 10.4561H12.7418L15.3738 0.488055H12.1398ZM23.9801 3.20405V0.488055H15.8041V10.4561H23.9801V7.74005H18.9681V6.80205H23.6021V4.18405H18.9681V3.20405H23.9801ZM31.1679 0.488055V2.11205C31.1679 3.47005 31.1679 4.66005 31.2099 5.90605C30.8879 5.23405 30.5519 4.56205 30.2439 4.03005L28.1859 0.488055H24.8959V10.4561H27.9759V8.83205C27.9759 7.55805 27.9619 6.42405 27.9199 5.24805C28.1999 5.79405 28.5079 6.32605 28.8579 6.91405L30.9579 10.4561H34.2479V0.488055H31.1679ZM45.3871 0.488055L44.6311 4.26805C44.5471 4.66005 44.4771 5.05205 44.4071 5.45805C44.3231 5.05205 44.2531 4.66005 44.1691 4.26805L43.3851 0.488055H38.5131V10.4561H41.5931V7.62805C41.5931 6.29805 41.5791 5.13605 41.5231 3.90405C41.6071 4.29605 41.7051 4.70205 41.8171 5.17805L43.1051 10.4561H45.6811L46.9411 5.17805C47.0671 4.67405 47.1651 4.24005 47.2491 3.82005C47.1931 5.08005 47.1791 6.27005 47.1791 7.62805V10.4561H50.2591V0.488055H45.3871ZM56.3624 10.6941C59.4704 10.6941 61.6404 8.67805 61.6404 5.47205C61.6404 2.28005 59.4704 0.264054 56.3624 0.264054C53.2544 0.264054 51.0844 2.28005 51.0844 5.47205C51.0844 8.67805 53.2404 10.6941 56.3624 10.6941ZM56.3624 8.00605C55.1864 8.00605 54.3604 7.26405 54.3604 5.47205C54.3604 3.69405 55.1864 2.95205 56.3624 2.95205C57.5384 2.95205 58.3644 3.69405 58.3644 5.47205C58.3644 7.26405 57.5384 8.00605 56.3624 8.00605ZM68.7383 0.488055V2.11205C68.7383 3.47005 68.7383 4.66005 68.7803 5.90605C68.4583 5.23405 68.1223 4.56205 67.8143 4.03005L65.7563 0.488055H62.4663V10.4561H65.5463V8.83205C65.5463 7.55805 65.5323 6.42405 65.4903 5.24805C65.7703 5.79405 66.0783 6.32605 66.4283 6.91405L68.5283 10.4561H71.8183V0.488055H68.7383ZM79.4909 10.4561H83.1029L79.3649 4.56205L82.8509 0.488055H79.1969L76.1029 4.39405V0.488055H72.9389V10.4561H76.1029V8.11805L77.2929 6.71805L79.4909 10.4561ZM91.6423 3.20405V0.488055H83.4663V10.4561H91.6423V7.74005H86.6303V6.80205H91.2643V4.18405H86.6303V3.20405H91.6423ZM98.3433 0.488055L97.7553 1.74805C97.4053 2.50405 97.1113 3.19005 96.8313 3.89005C96.5233 3.19005 96.1873 2.50405 95.7953 1.74805L95.1513 0.488055H91.7353L95.2073 6.66205V10.4561H98.3713V6.66205L101.717 0.488055H98.3433ZM108.445 7.69805C107.591 7.69805 106.751 7.71205 105.897 7.72605C106.513 7.12405 107.087 6.52205 107.633 5.93405L110.489 2.86805V0.488055H101.949V3.20405H103.811C104.637 3.20405 105.463 3.19005 106.289 3.17605C105.687 3.79205 105.127 4.40805 104.567 5.01005L101.809 8.02005V10.4561H110.559V7.69805H108.445Z" fill="white"/>
</svg>
