<svg width="109" height="11" viewBox="0 0 109 11" fill="none" xmlns="http://www.w3.org/2000/svg">
<path d="M9.04752 3.20405V0.488055H0.871523V10.4561H9.04752V7.74005H4.03552V6.80205H8.66952V4.18405H4.03552V3.20405H9.04752ZM16.8093 10.4561H20.0853L16.5153 0.488055H12.6513L9.27732 10.4561H12.4413L12.8333 9.15405H16.4173L16.8093 10.4561ZM13.5053 6.84405L14.1913 4.54805L14.6113 3.06405C14.7373 3.55405 14.8913 4.05805 15.0313 4.54805L15.7173 6.84405H13.5053ZM29.2136 9.44805L29.1016 7.97805C29.0176 6.83005 28.6256 6.14405 27.7016 5.79405C28.6956 5.40205 29.1996 4.60405 29.1996 3.41405C29.1996 1.86005 28.3596 0.488055 25.3636 0.488055H20.4496V10.4561H23.6136V7.20805H24.7056C25.6436 7.20805 25.9376 7.50205 25.9796 8.45405L26.0216 9.44805C26.0356 9.88205 26.0916 10.1901 26.2176 10.4561H29.4516C29.2976 10.2041 29.2556 9.96605 29.2136 9.44805ZM24.8736 4.91205H23.6136V2.92405H24.8736C25.5876 2.92405 25.9656 3.23205 25.9656 3.91805C25.9656 4.60405 25.5876 4.91205 24.8736 4.91205ZM33.348 7.74005V0.488055H30.184V10.4561H37.632V7.74005H33.348ZM42.3677 0.488055L41.7797 1.74805C41.4297 2.50405 41.1357 3.19005 40.8557 3.89005C40.5477 3.19005 40.2117 2.50405 39.8197 1.74805L39.1757 0.488055H35.7597L39.2317 6.66205V10.4561H42.3957V6.66205L45.7417 0.488055H42.3677ZM56.1706 10.4561H59.4466L55.8766 0.488055H52.0126L48.6386 10.4561H51.8026L52.1946 9.15405H55.7786L56.1706 10.4561ZM52.8666 6.84405L53.5526 4.54805L53.9726 3.06405C54.0986 3.55405 54.2526 4.05805 54.3926 4.54805L55.0786 6.84405H52.8666ZM64.1908 10.7081C66.9628 10.7081 68.9648 9.01405 69.3708 6.67605H66.1368C65.8988 7.62805 65.1988 8.02005 64.3448 8.02005C63.1128 8.02005 62.3008 7.23605 62.3008 5.45805C62.3008 3.72205 63.0568 2.95205 64.3028 2.95205C65.2128 2.95205 65.8848 3.38605 66.1228 4.31005H69.3848C68.9368 1.87405 67.2988 0.264054 64.3728 0.264054C61.0828 0.264054 59.0248 2.28005 59.0248 5.45805C59.0248 8.66405 61.1528 10.7081 64.1908 10.7081ZM75.0326 10.7081C77.8046 10.7081 79.8066 9.01405 80.2126 6.67605H76.9786C76.7406 7.62805 76.0406 8.02005 75.1866 8.02005C73.9546 8.02005 73.1426 7.23605 73.1426 5.45805C73.1426 3.72205 73.8986 2.95205 75.1446 2.95205C76.0546 2.95205 76.7266 3.38605 76.9646 4.31005H80.2266C79.7786 1.87405 78.1406 0.264054 75.2146 0.264054C71.9246 0.264054 69.8666 2.28005 69.8666 5.45805C69.8666 8.66405 71.9946 10.7081 75.0326 10.7081ZM89.1784 3.20405V0.488055H81.0024V10.4561H89.1784V7.74005H84.1664V6.80205H88.8004V4.18405H84.1664V3.20405H89.1784ZM94.3625 10.6941C97.3585 10.6941 98.9125 9.30805 98.9125 7.16605C98.9125 5.38805 97.7925 4.43605 95.3005 4.08605L94.0965 3.91805C93.4945 3.83405 93.1585 3.63805 93.1585 3.24605C93.1585 2.85405 93.4945 2.60205 94.3625 2.60205C95.3145 2.60205 95.6365 2.95205 95.7065 3.55405H98.6325C98.4505 1.24405 96.8545 0.264054 94.2505 0.264054C90.8345 0.264054 90.0085 1.95805 90.0085 3.52605C90.0085 5.43005 91.2965 6.41005 93.1025 6.66205L94.3065 6.83005C95.3845 6.98405 95.7205 7.20805 95.7205 7.64205C95.7205 8.10405 95.3285 8.32805 94.4185 8.32805C93.5365 8.32805 92.9625 8.10405 92.8925 7.18005H89.7705C89.8685 9.26605 91.3105 10.6941 94.3625 10.6941ZM103.974 10.6941C106.97 10.6941 108.524 9.30805 108.524 7.16605C108.524 5.38805 107.404 4.43605 104.912 4.08605L103.708 3.91805C103.106 3.83405 102.77 3.63805 102.77 3.24605C102.77 2.85405 103.106 2.60205 103.974 2.60205C104.926 2.60205 105.248 2.95205 105.318 3.55405H108.244C108.062 1.24405 106.466 0.264054 103.862 0.264054C100.446 0.264054 99.6199 1.95805 99.6199 3.52605C99.6199 5.43005 100.908 6.41005 102.714 6.66205L103.918 6.83005C104.996 6.98405 105.332 7.20805 105.332 7.64205C105.332 8.10405 104.94 8.32805 104.03 8.32805C103.148 8.32805 102.574 8.10405 102.504 7.18005H99.3819C99.4799 9.26605 100.922 10.6941 103.974 10.6941Z" fill="white"/>
</svg>
