<svg fill="none" height="52" viewBox="0 0 52 52" width="52" xmlns="http://www.w3.org/2000/svg"><g stroke-linecap="round" stroke-linejoin="round" stroke-width=".136221"><path d="m41.9381 9.43588-13.554 10.06672 2.5065-5.9392z" fill="#e2761b" stroke="#e2761b"/><g fill="#e4761b" stroke="#e4761b"><path d="m10.6482 9.43594 13.445 10.16206-2.3838-6.0346z"/><path d="m37.0615 32.7706-3.6099 5.5306 7.7237 2.125 2.2204-7.533z"/><path d="m9.2179 32.8932 2.2068 7.533 7.7237-2.125-3.6098-5.5306z"/><path d="m18.7125 23.4258-2.1523 3.2557 7.6692.3406-.2724-8.2414z"/><path d="m33.8739 23.4258-5.3126-4.7405-.1771 8.3368 7.6556-.3406z"/><path d="m19.1484 38.3012 4.6043-2.2477-3.9777-3.1058z"/><path d="m28.8337 36.0535 4.6179 2.2477-.6402-5.3535z"/></g><path d="m33.4515 38.301-4.6179-2.2476.3678 3.0105-.0409 1.2668z" fill="#d7c1b3" stroke="#d7c1b3"/><path d="m19.1483 38.3011 4.291 2.0297-.0273-1.2669.3406-3.0105z" fill="#d7c1b3" stroke="#d7c1b3"/><path d="m23.5074 30.9588-3.8414-1.1306 2.7108-1.2396z" fill="#233447" stroke="#233447"/><path d="m29.0788 30.9588 1.1306-2.3702 2.7245 1.2396z" fill="#233447" stroke="#233447"/><path d="m19.1483 38.3011.6539-5.5305-4.2638.1226z" fill="#cd6116" stroke="#cd6116"/><path d="m32.7976 32.7706.6539 5.5305 3.6098-5.4079z" fill="#cd6116" stroke="#cd6116"/><path d="m36.0397 26.6815-7.6556.3406.7083 3.9367 1.1307-2.3702 2.7244 1.2396z" fill="#cd6116" stroke="#cd6116"/><path d="m19.6659 29.8282 2.7245-1.2396 1.117 2.3702.7219-3.9367-7.6692-.3406z" fill="#cd6116" stroke="#cd6116"/><path d="m16.5601 26.6815 3.2148 6.2661-.1089-3.1194z" fill="#e4751f" stroke="#e4751f"/><path d="m32.9474 29.8282-.1362 3.1195 3.2284-6.2662z" fill="#e4751f" stroke="#e4751f"/><path d="m24.2293 27.0221-.722 3.9367.8991 4.6452.2043-6.1163z" fill="#e4751f" stroke="#e4751f"/><path d="m28.384 27.0221-.3678 2.4519.1635 6.13.9127-4.6452z" fill="#e4751f" stroke="#e4751f"/><path d="m29.0925 30.9588-.9127 4.6451.6538.4495 3.9777-3.1058.1362-3.1195z" fill="#f6851b" stroke="#f6851b"/><path d="m19.666 29.8281.1089 3.1195 3.9777 3.1058.6538-.4495-.899-4.6451z" fill="#f6851b" stroke="#f6851b"/><path d="m29.1606 40.3308.0408-1.2669-.3405-.2997h-5.1356l-.3133.2997.0273 1.2669-4.291-2.0297 1.4984 1.226 3.0378 2.1114h5.2172l3.0514-2.1114 1.4984-1.226z" fill="#c0ad9e" stroke="#c0ad9e"/><path d="m28.8336 36.0535-.6538-.4496h-3.7733l-.6539.4496-.3406 3.0104.3133-.2996h5.1356l.3405.2996z" fill="#161616" stroke="#161616"/><path d="m42.5102 20.1565 1.1579-5.5578-1.73-5.16276-13.1045 9.72616 5.0402 4.2637 7.1243 2.0842 1.5802-1.839-.6811-.4904 1.0898-.9944-.8446-.6538 1.0898-.831z" fill="#763d16" stroke="#763d16"/><path d="m8.93175 14.5987 1.15785 5.5578-.73557.5449 1.08977.8309-.83095.6539 1.08975.9944-.6811.4904 1.5666 1.839 7.1243-2.0842 5.0402-4.2637-13.1045-9.72622z" fill="#763d16" stroke="#763d16"/><path d="m40.9982 25.5099-7.1244-2.0841 2.1659 3.2556-3.2284 6.2662 4.2501-.0545h6.3342z" fill="#f6851b" stroke="#f6851b"/><path d="m18.7124 23.4258-7.1244 2.0841-2.37021 7.3832h6.32061l4.2365.0545-3.2148-6.2662z" fill="#f6851b" stroke="#f6851b"/><path d="m28.3841 27.022.4495-7.8599 2.0706-5.5987h-9.1949l2.0433 5.5987.4768 7.8599.1634 2.4792.0136 6.1027h3.7734l.0272-6.1027z" fill="#f6851b" stroke="#f6851b"/></g></svg>