<svg fill="none" height="34" viewBox="0 0 34 34" width="34" xmlns="http://www.w3.org/2000/svg" xmlns:xlink="http://www.w3.org/1999/xlink"><clipPath id="a"><path d="m0 0h34v34h-34z"/></clipPath><g clip-path="url(#a)"><path d="m34 17.0002c0 9.3884-7.6117 17-17 17-9.38831 0-17-7.6116-17-17 0-9.38826 7.61169-16.99995586 17-16.99995586 9.3903 0 17 7.61169586 17 16.99995586z" fill="#000"/><g fill="#fff"><path d="m8.38707 17.5711.07336-.1153 4.42237-6.9182c.0646-.1013.2166-.0908.2655.0192.7388 1.6558 1.3763 3.715 1.0776 4.997-.1275.5274-.4768 1.2418-.8698 1.902-.0506.0961-.1065.1904-.1659.2812-.0279.0419-.0751.0664-.1258.0664h-4.5481c-.12224 0-.19383-.1327-.12923-.2323z"/><path d="m28.0991 18.857v1.0951c0 .0629-.0384.1188-.0943.1432-.3423.1468-1.5143.6847-2.0016 1.3624-1.2436 1.7309-2.1937 4.2058-4.3176 4.2058h-8.8604c-3.1404 0-5.68519-2.5535-5.68519-5.7044v-.1013c0-.0838.06812-.1519.15198-.1519h4.93931c.0978 0 .1695.0908.1607.1868-.0349.3214.0245.6498.1764.9485.2935.5955.9013.9676 1.558.9676h2.4452v-1.9091h-2.4173c-.124 0-.1973-.1432-.1257-.2445.0262-.0402.0559-.0821.0873-.1292.2288-.3249.5554-.8297.8803-1.4043.2218-.3877.4366-.8017.6096-1.2174.0349-.0751.0629-.1519.0908-.227.0472-.1328.096-.2568.131-.3808.0349-.1048.0628-.2148.0908-.3179.0821-.3528.117-.7265.117-1.1143 0-.1519-.007-.3109-.0209-.4629-.007-.1659-.028-.3318-.049-.4977-.0139-.1467-.0401-.2917-.0681-.4436-.0349-.2219-.0838-.4419-.1397-.6638l-.0192-.0838c-.0419-.1519-.0768-.2969-.1258-.4489-.1379-.4768-.2969-.9414-.4646-1.3763-.0611-.1729-.131-.3388-.2008-.5047-.1031-.2498-.2079-.47686-.3039-.6917-.0489-.09781-.0909-.18689-.1328-.27771-.0471-.10306-.096-.20608-.1449-.30392-.035-.0751-.0751-.14495-.1031-.2148l-.2986-.55194c-.042-.0751.0279-.16418.11-.14148l1.8688.50653h.0053c.0035 0 .0052.00174.007.00174l.2463.06811.2707.07684.0995.02796v-1.11082c0-.53622.4297-.97112.9607-.97112.2654 0 .5065.10827.6794.2847.1729.17642.2812.41744.2812.68642v1.64877l.1991.05587c.0157.00526.0314.01224.0454.02271.0489.03668.1188.09085.2078.15719.0699.05591.145.12403.2358.19388.1799.14499.3947.33187.6305.54667.0629.0542.1241.1101.1799.166.304.2829.6445.6148.9694.9815.0908.1031.1799.2079.2707.3179.0909.1118.1869.2218.2708.3319.11.1467.2287.2986.3318.4576.0489.0751.1048.1519.152.227.1327.2009.2497.4088.3615.6166.0472.096.0961.2008.138.3039.124.2777.2218.5606.2847.8436.0192.0611.0332.1275.0402.1869v.0139c.0209.0839.0279.173.0349.2638.0279.2899.0139.5798-.0489.8715-.0262.1241-.0611.2411-.1031.3651-.0419.1188-.0838.2427-.1379.3598-.1048.2427-.2289.4855-.3756.7126-.0471.0838-.103.1729-.1589.2567-.0611.0891-.124.173-.1799.255-.0769.1048-.1589.2149-.2428.3127-.0751.103-.152.2061-.2358.2969-.117.138-.2288.269-.3458.3947-.0699.0821-.145.166-.2218.2411-.0751.0838-.152.1589-.2218.2287-.1171.1171-.2149.2079-.297.283l-.1921.1764c-.0279.0245-.0646.0384-.103.0384h-1.4881v1.9091h1.8723c.4192 0 .8174-.1485 1.1388-.421.11-.096.5903-.5117 1.158-1.1387.0192-.021.0437-.0367.0716-.0437l5.1716-1.4951c.0961-.028.1939.0454.1939.1467z"/></g></g></svg>