<svg width="51" height="46" viewBox="0 0 51 46" fill="none" xmlns="http://www.w3.org/2000/svg">
<path fill-rule="evenodd" clip-rule="evenodd" d="M50.5319 32.1269V29.4964C50.5319 29.253 50.297 29.0768 50.0662 29.1439L37.6435 32.7352C37.5764 32.752 37.5176 32.7898 37.4715 32.8401C36.1408 34.31 35.0098 35.2965 34.7105 35.5576L34.6899 35.5756C33.9179 36.23 32.9614 36.5866 31.9545 36.5866H27.457V32.001H31.0315C31.1238 32.001 31.2119 31.9674 31.279 31.9087L31.7405 31.485C31.9377 31.3046 32.1726 31.0864 32.4538 30.8053C32.4774 30.7816 32.5013 30.7578 32.5256 30.7336C32.6734 30.5863 32.8315 30.4287 32.9865 30.2557C33.1712 30.0753 33.3516 29.874 33.5194 29.6768C33.8005 29.3747 34.069 29.06 34.3501 28.7286C34.5514 28.5104 34.7361 28.2629 34.9165 28.0153C35.1179 27.7804 35.3151 27.5161 35.4996 27.2644C35.568 27.164 35.6408 27.0624 35.7151 26.9587C35.7867 26.8588 35.8597 26.7568 35.9318 26.6518C36.0661 26.4504 36.2003 26.2364 36.3135 26.0351C36.666 25.4897 36.9639 24.9065 37.2156 24.3233C37.331 24.074 37.4232 23.8115 37.5129 23.5562C37.5243 23.5237 37.5356 23.4913 37.547 23.4591C37.6477 23.1612 37.7316 22.8801 37.7946 22.5822C37.9456 21.8816 37.9791 21.1851 37.912 20.4887C37.8952 20.2706 37.8784 20.0566 37.8281 19.8552V19.8217C37.8114 19.679 37.7778 19.5196 37.7316 19.3727C37.5806 18.6931 37.3456 18.0134 37.0477 17.3463C36.9471 17.0988 36.8296 16.847 36.7163 16.6163C36.4478 16.1171 36.1667 15.6178 35.8479 15.1353C35.7838 15.0333 35.713 14.9299 35.6424 14.8267C35.5881 14.7475 35.5339 14.6683 35.4828 14.5899C35.2807 14.2782 35.0535 13.9776 34.833 13.686C34.7834 13.6205 34.7342 13.5554 34.6857 13.4907C34.5556 13.3199 34.4132 13.1491 34.2698 12.9771C34.1914 12.883 34.1126 12.7885 34.0355 12.6935C33.8173 12.4292 33.6033 12.1775 33.3852 11.93C32.6048 11.049 31.7867 10.2518 31.0567 9.57219C30.9224 9.43789 30.7755 9.30367 30.6245 9.17354C30.0581 8.65757 29.5421 8.20865 29.11 7.86037C28.9798 7.76024 28.863 7.66159 28.7544 7.56977C28.681 7.50773 28.6112 7.44882 28.5436 7.39467C28.4105 7.29557 28.2953 7.20777 28.1989 7.13435C28.1404 7.08972 28.0888 7.05039 28.0444 7.01708C28.0108 6.99194 27.973 6.97515 27.9352 6.96254L27.457 6.82833V2.86785C27.457 2.22175 27.1968 1.64279 26.7815 1.21901C26.3661 0.795231 25.7872 0.535156 25.1495 0.535156C23.8741 0.535156 22.842 1.57981 22.842 2.86785V5.53612L22.6028 5.46897L21.9526 5.28439L21.361 5.12078C21.3593 5.12078 21.3575 5.12006 21.3555 5.11922C21.3526 5.11804 21.3491 5.1166 21.3442 5.1166H21.3316L16.8424 3.89989C16.6453 3.84536 16.4775 4.05933 16.5782 4.23973L17.2956 5.56552C17.3364 5.66756 17.3881 5.7696 17.4412 5.87448C17.4754 5.94205 17.5103 6.01081 17.5432 6.0815C17.6606 6.31653 17.7781 6.56399 17.8913 6.81154C17.992 7.02969 18.0927 7.24367 18.2102 7.47861C18.2597 7.58927 18.3101 7.70128 18.3613 7.81488C18.5487 8.23108 18.7457 8.66871 18.9402 9.14006L18.9418 9.14394C19.1091 9.5412 19.2763 9.93851 19.4227 10.3525C19.8254 11.3972 20.2073 12.5131 20.5387 13.6585C20.6211 13.9145 20.687 14.1623 20.7537 14.4134C20.7821 14.5203 20.8107 14.6278 20.8407 14.7368L20.8868 14.9381C21.0211 15.471 21.1386 15.9996 21.2225 16.5324C21.2897 16.8974 21.3526 17.2456 21.3861 17.598L21.3861 17.5981C21.4365 17.9967 21.4869 18.3952 21.5036 18.7937C21.5372 19.1588 21.554 19.5405 21.554 19.9055C21.554 20.8369 21.4701 21.7348 21.2729 22.5822C21.2606 22.6275 21.2483 22.6734 21.2359 22.7197C21.1806 22.9261 21.1232 23.1402 21.0547 23.3458C20.9925 23.5665 20.912 23.7872 20.8283 24.0164C20.799 24.0965 20.7694 24.1778 20.74 24.2604C20.7352 24.2733 20.7304 24.2863 20.7256 24.2994C20.6632 24.4674 20.5998 24.6384 20.5219 24.8058C20.1065 25.8043 19.5905 26.7987 19.0577 27.73C18.2773 29.1103 17.4928 30.3229 16.9432 31.1032C16.9097 31.1533 16.8771 31.201 16.8457 31.247C16.8062 31.3048 16.7685 31.3599 16.7334 31.4136C16.5614 31.657 16.7376 32.001 17.0354 32.001H22.842V36.5866H16.9684C15.3909 36.5866 13.9309 35.693 13.226 34.2624C12.861 33.545 12.7183 32.7562 12.8023 31.9842C12.8232 31.7535 12.6512 31.5353 12.4162 31.5353H0.551591C0.350137 31.5353 0.186523 31.6989 0.186523 31.9003V32.1437C0.186523 39.7123 6.2993 45.846 13.8428 45.846H35.1262C39.1158 45.846 41.3812 42.2104 43.6079 38.637C44.2285 37.6409 44.8462 36.6497 45.4974 35.7433C46.6679 34.1156 49.4831 32.8233 50.3054 32.4709C50.4396 32.4122 50.5319 32.2779 50.5319 32.1269ZM3.35804 26.131L3.18182 26.4079C3.02664 26.6471 3.19861 26.966 3.49226 26.966H14.4172C14.5389 26.966 14.6522 26.9072 14.7193 26.8065C14.862 26.5884 14.9962 26.3618 15.1179 26.131C16.0619 24.5452 16.9009 22.8292 17.2072 21.5622C17.9246 18.4828 16.3933 13.5363 14.6186 9.55898C14.5012 9.29473 14.1361 9.26951 13.9809 9.51288L3.35804 26.131Z" fill="white"/>
</svg>
