<svg fill="none" height="494" viewBox="0 0 494 494" width="494" xmlns="http://www.w3.org/2000/svg" xmlns:xlink="http://www.w3.org/1999/xlink"><clipPath id="a"><path d="m0 0h494v494h-494z"/></clipPath><clipPath id="b"><path d="m0 0h494v494h-494z"/></clipPath><mask id="c" height="94" maskUnits="userSpaceOnUse" width="84" x="175" y="27"><path d="m257.529 95.3674c-41.424 6.5856-44.063 7.1366-80.423 24.7786-.928.45-2.027-.2-1.998-1.231.259-9.047 1.521-44.7331 6.291-90.4874.113-1.0838 1.366-1.6331 2.213-.9474 22.758 18.4294 64.84 56.5757 74.678 65.5249.855.7778.38 2.1808-.761 2.3623z" fill="#ed2146"/></mask><g clip-path="url(#a)"><g fill="#dc6363"><path d="m151.787 169.726c0-34.294 1.293-37.041 31.375-53.508 38.171-20.8949 95.491-24.8497 133.152-21.585 38.643 3.3497 50.046 16.354 50.046 39.216v184.905c0 34.294-28.491 62.095-62.785 62.095l-64.556 2.259c0 3.265 6.274 21.567 15.887 25.341 28.179 5.784 68.966 3.235 88.194 11.569 26.763 11.599 22.933 59.089 29.028 83.473-11.882 11.719-274.4504 1.017-280.8671 3.572-9.6592 3.845 0-65.05 16.0541-79.645-2.008-3.535 46.817-31.015 45.761-44.384-2.244-28.4-1.289-68.825-1.289-78.079z"/><path d="m379.469 195.256c0-23.99-20.327-36.057-44.26-34.398l-58.542 3.82-55.092-3.82c-23.932-1.659-44.26 17.308-44.26 41.298v17.298c0 22.863 18.534 41.397 41.397 41.397h1.697c3.429 0 6.209 2.78 6.209 6.209v53.764c0 22.863 18.534 46.227 41.397 46.227h37.544c22.863 0 44.847-22.674 44.847-45.537v-59.343c0-2.717 1.789-5.076 4.278-6.168 14.592-6.4 24.785-24.423 24.785-41.378z"/><path d="m75.6387 209.042c0 27.821 22.5535 50.374 50.3743 50.374 13.072 0 24.981-4.979 33.935-13.144v-74.461c-8.954-8.165-20.863-13.144-33.935-13.144-27.8208 0-50.3743 22.553-50.3743 50.375z"/><path d="m412.356 209.645c10.89 22.029-.499 49.882-25.439 62.211-11.719 5.793-23.653 7.128-34.876 4.631l-29.836-58.958c4.83-10.433 14.246-19.653 25.965-25.446 24.94-12.33 53.296-4.467 64.186 17.562z"/></g><path d="m366.528 277.546c6.948-.485 13.6-2.334 20.389-5.69 24.94-12.33 36.329-40.182 25.439-62.211-6.497-13.143-19.458-21.244-34.153-23.022" stroke="#000" stroke-linecap="round" stroke-width="5.51955"/><path d="m383.091 253.71c14.53-7.182 21.165-23.409 14.821-36.242-3.337-6.75-9.601-11.217-16.903-12.89" stroke="#000" stroke-linecap="round" stroke-width="5.51955"/><path d="m192.625 403.728c1.49-.32 2.958.629 3.277 2.119.32 1.491-.629 2.958-2.119 3.278zm-46.451 10.912c-1.433.521-3.016-.218-3.537-1.651-.521-1.432.218-3.016 1.651-3.536zm47.609-5.515c-11.83 2.537-18.192 1.738-24.301 1.446-5.81-.279-11.722-.144-23.308 4.069l-1.886-5.187c12.326-4.482 18.974-4.706 25.459-4.396 6.186.297 11.854 1.035 22.878-1.329z" fill="#000"/><path d="m232.643 403.728c-1.49-.32-2.957.629-3.277 2.119-.319 1.49.63 2.958 2.12 3.277zm42.076 9.557c1.521.109 2.842-1.034 2.951-2.555.11-1.52-1.034-2.841-2.554-2.95zm-43.233-4.161c23.081 4.951 20.399 2.517 43.233 4.161l.397-5.505c-23.845-1.717-19.846.801-42.473-4.052z" fill="#000"/><path d="m250.192 407.488s-49.122-29.679-53.554-52.592c21.487 26.919 37.478 26.919 40.726 26.919s12.828 25.673 12.828 25.673z" fill="#393c40" opacity=".4"/><path d="m204.242 441.186-20.075 53.066c-5.202 13.748 5.861 28.137 21.272 27.669l87.031-2.642c13.758-.418 23.653-12.622 20.265-25.258-4.636-17.29-11.176-40.255-17.334-56.853-3.493-9.418-14.287-8.658-18.073.658-4.513 11.109-24.699 13.24-33.591 4.829-3.309-3.131-6.7-6.16-9.961-8.972-9.796-8.443-25.066-4.307-29.534 7.503z" fill="#6c6e77"/><path d="m162.61 473.948s36.466 44.317 33.031 67.401c-11.319-32.53-26.401-37.845-29.464-38.925-3.064-1.079-3.567-28.476-3.567-28.476z" fill="#393c40" opacity=".4"/><path d="m179.701 117.66 1.197 2.486zm145.262-23.1378v-2.7598zm41.973 74.0988-1.668 2.199zm.041 80.537 1.595 2.252zm-187.882 80.288c-.809-1.291-2.512-1.682-3.804-.873-1.291.809-1.682 2.512-.873 3.804zm-45.804 78.545 1.356 2.404zm-30.409 23.036 2.344 1.455zm-12.96 103.524 2.7585-.083zm-2.7126 1.599c.0462 1.523 1.3187 2.721 2.8422 2.675 1.5235-.047 2.7211-1.319 2.6749-2.843zm65.1896-379.426-2.76.006zm-2.681 8.172c0 1.525 1.235 2.76 2.759 2.76s2.76-1.235 2.76-2.76zm5.519 88.906c0-1.524-1.236-2.76-2.76-2.76s-2.759 1.236-2.759 2.76zm25.661-133.656c57.529-27.702 86.486-22.8641 144.065-22.8641v-5.5195c-57.262 0-87.582-4.9406-146.459 23.4106zm123.367 260.013h-58.972v5.52h58.972zm59.335-59.335c0 32.77-26.565 59.335-59.335 59.335v5.52c35.818 0 64.855-29.037 64.855-64.855zm-38.637-223.5421c21.339 0 38.637 17.2981 38.637 38.6371h5.52c0-24.387-19.77-44.1566-44.157-44.1566zm40.305 73.5381c3.892 2.952 7.109 8.256 9.364 15.137 2.237 6.825 3.43 14.909 3.493 23.04.063 8.133-1.005 16.189-3.199 22.964-2.21 6.824-5.462 12.053-9.544 14.945l3.19 4.504c5.443-3.855 9.209-10.351 11.605-17.748 2.411-7.446 3.534-16.108 3.468-24.707-.067-8.602-1.325-17.264-3.768-24.717-2.425-7.398-6.118-13.905-11.273-17.815zm-119.975 209.339c-16.76 0-33.191-12.228-45.77-25.168-6.212-6.389-11.33-12.789-14.896-17.597-1.782-2.402-3.172-4.4-4.114-5.793-.47-.697-.829-1.241-1.067-1.609-.12-.184-.209-.323-.268-.415-.029-.046-.051-.08-.065-.102-.007-.011-.012-.019-.015-.024-.001-.002-.002-.004-.003-.005s0 0-2.338 1.466c-2.339 1.465-2.339 1.466-2.338 1.467 0 0 .001.001.002.003s.003.005.006.009c.005.008.012.019.021.033.017.028.043.068.076.121.067.104.165.257.293.454.256.394.633.967 1.124 1.693.981 1.451 2.417 3.516 4.253 5.99 3.667 4.943 8.943 11.545 15.371 18.157 12.702 13.064 30.539 26.84 49.728 26.84zm-113.357 25.428c-5.943 3.351-12.402 7.158-18.023 11.165-5.558 3.962-10.578 8.312-13.376 12.819l4.689 2.911c2.193-3.533 6.454-7.36 11.891-11.236 5.374-3.831 11.625-7.522 17.53-10.851zm-31.399 23.984c-7.987 12.867-11.6507 27.62-13.1688 44.847-1.5145 17.186-.9072 37.065-.2047 60.217l5.517-.167c-.7056-23.255-1.2938-42.773.1859-59.565 1.4761-16.751 4.9962-30.558 12.3596-42.421zm-13.3735 105.064.0459 1.515 5.5171-.168-.046-1.514zm281.9565-367.153v-31.563h-5.52v31.563zm-5.52 82.844v70.498h5.52v-70.498zm-185.096-135.153c-8.512 4.099-15.807 8.689-20.934 15.247-5.188 6.636-7.955 15.02-7.931 26.31l5.52-.012c-.022-10.31 2.477-17.421 6.759-22.898 4.344-5.555 10.723-9.697 18.98-13.674zm-28.865 41.557c.005 1.985.025 2.732.043 3.632.018.873.036 1.917.036 4.534h5.519c0-2.648-.017-3.731-.036-4.648-.019-.891-.038-1.597-.042-3.53zm5.598 217.711v-105.064h-5.519v105.064zm0-105.064v-15.575h-5.519v15.575zm210.145-22.471c-1.069.757-1.782 2.006-1.782 3.42h5.52c0 .479-.242.867-.548 1.084zm3.222-80.483c.293.222.516.603.516 1.059h-5.52c0 1.359.657 2.571 1.668 3.338zm-233.957 243.972c13.23-7.459 20.59-20.881 20.59-35.954h-5.519c0 13.198-6.386 24.721-17.782 31.146z" fill="#000"/><path d="m158.343 174.084c1.118 1.035 2.864.968 3.9-.151 1.035-1.119.967-2.865-.152-3.9zm3.748 73.966c1.119-1.035 1.187-2.781.152-3.9-1.036-1.119-2.782-1.187-3.9-.151zm-36.078 8.606c-26.2969 0-47.6148-21.318-47.6148-47.615h-5.5195c0 29.346 23.789 53.135 53.1343 53.135zm-47.6148-47.615c0-26.297 21.3179-47.614 47.6148-47.614v-5.52c-29.3453 0-53.1343 23.789-53.1343 53.134zm47.6148-47.614c12.482 0 23.837 4.799 32.33 12.657l3.748-4.051c-9.473-8.765-22.152-14.126-36.078-14.126zm32.33 82.572c-8.493 7.858-19.848 12.657-32.33 12.657v5.52c13.926 0 26.605-5.361 36.078-14.126z" fill="#000"/><path d="m125.186 239.231c-1.524-.052-2.801 1.141-2.852 2.664-.052 1.523 1.141 2.8 2.664 2.852zm-34.996-34.762c-.1696 1.515.9208 2.88 2.4355 3.05 1.5148.17 2.8802-.921 3.0497-2.436zm15.933-19.213c12.843-11.1 32.253-9.686 43.353 3.157l4.176-3.609c-13.093-15.15-35.988-16.817-51.138-3.725zm43.353 3.157c11.1 12.844 9.686 32.254-3.158 43.354l3.609 4.176c15.15-13.093 16.818-35.988 3.725-51.139zm-3.158 43.354c-6.097 5.269-13.666 7.717-21.132 7.464l-.188 5.516c8.801.299 17.74-2.591 24.929-8.804zm-50.6428-26.684c.8312-7.424 4.3508-14.559 10.4478-19.827l-3.609-4.177c-7.1894 6.213-11.3443 14.639-12.324 23.39z" fill="#000"/><path d="m239.424 383.103c0 13.21 9.859 24.342 22.972 25.938l70.238 8.55c15.574 1.896 27.908 14.062 30.016 29.609l13.9 102.513" stroke="#000" stroke-width="5.51955"/><path d="m334.859 475.476c-.296-1.495-1.748-2.467-3.243-2.171s-2.467 1.748-2.171 3.243zm-2.462 40.521c0 1.524 1.235 2.76 2.759 2.76 1.525 0 2.76-1.236 2.76-2.76zm-2.952-39.449c4.002 20.222 2.952 25.75 2.952 39.449h5.519c0-13.534 1.072-19.658-3.057-40.521z" fill="#000"/><path d="m163.753 475.476c-.296-1.495-1.748-2.467-3.243-2.171s-2.468 1.748-2.172 3.243zm-2.463 40.521c0 1.524 1.236 2.76 2.76 2.76s2.76-1.236 2.76-2.76zm-2.952-39.449c4.003 20.222 2.952 25.75 2.952 39.449h5.52c0-13.534 1.072-19.658-3.057-40.521z" fill="#000"/><path d="m371.19 200.801c0-23.99-20.328-38.817-44.26-37.158-28.757 6.606-58.563 7.247-87.578 1.883l-10.187-1.883c-23.933-1.659-44.26 17.307-44.26 41.297v28.338c0 22.863 1.285 41.397 24.148 41.397h1.697c3.429 0 6.209 2.78 6.209 6.209v43.415c0 22.863 18.534 41.397 41.397 41.397h53.413c22.863 0 41.397-18.534 41.397-41.397v-72.342c0-2.159 1.289-4.111 3.134-5.232 4.248-2.579 11.484-8.191 13.06-17.177 2.264-12.903 1.83-28.747 1.83-28.747z" fill="#ff8585"/></g><circle cx="226.067" cy="212.305" fill="#dc6363" r="31.9352"/><circle cx="340.668" cy="212.305" fill="#dc6363" r="31.9352"/><path d="m209.269 215.814 4.114 4.113c7.005 7.006 18.363 7.006 25.368 0l4.114-4.113" stroke="#000" stroke-linecap="round" stroke-linejoin="round" stroke-width="5.51955"/><path d="m323.87 215.814 4.113 4.113c7.006 7.006 18.364 7.006 25.369 0l4.114-4.113" stroke="#000" stroke-linecap="round" stroke-linejoin="round" stroke-width="5.51955"/><path d="m312.112 263.778c0-8.685-7.041-15.726-15.726-15.726h-20.639c-8.685 0-15.726 7.041-15.726 15.726 0 3.81 3.089 6.899 6.899 6.899 2.358 0 4.27 1.912 4.27 4.27v2.012c0 3.469 2.812 6.281 6.281 6.281h17.191c3.469 0 6.281-2.812 6.281-6.281v-2.012c0-2.358 1.912-4.27 4.27-4.27 3.81 0 6.899-3.089 6.899-6.899z" fill="#dc6363"/><path d="m280.807 256.743c0-2.66-2.156-4.816-4.816-4.816h-2.109c-5.321 0-9.634 4.313-9.634 9.633v.729c0 2.66 2.157 4.816 4.817 4.816h2.109c5.32 0 9.633-4.312 9.633-9.633z" fill="#000"/><path d="m291.846 256.743c0-2.66 2.157-4.816 4.817-4.816h2.109c5.32 0 9.633 4.313 9.633 9.633v.729c0 2.66-2.157 4.816-4.817 4.816h-2.109c-5.32 0-9.633-4.312-9.633-9.633z" fill="#000"/><g clip-path="url(#b)"><path d="m204.242 441.186-20.075 53.066c-5.202 13.748 5.861 28.137 21.272 27.669l87.031-2.642c13.758-.418 23.653-12.622 20.265-25.258-4.636-17.29-11.176-40.255-17.334-56.853-3.493-9.418-14.287-8.658-18.073.658-4.513 11.109-24.699 13.24-33.591 4.829-3.309-3.131-6.7-6.16-9.961-8.972-9.796-8.443-25.066-4.307-29.534 7.503z" fill="#ff8585"/></g><circle cx="382.565" cy="253.933" fill="#000" r="1.66169"/><path d="m178.31 122.629c18.216-8.838 27.771-13.286 37.913-16.379 10.16-3.098 20.963-4.854 41.738-8.1571 3.202-.5089 4.92-4.6419 2.185-7.1293-9.817-8.9315-51.965-47.138-74.798-65.6282-2.636-2.1348-6.366-.3436-6.694 2.806-4.78 45.8448-6.045 81.6046-6.305 90.6946-.094 3.299 3.35 5.06 5.961 3.793z" fill="#2166ed" stroke="#000" stroke-width="5.51955"/><g mask="url(#c)" stroke="#fb6464" stroke-width="4.82961"><path d="m271.148 60.0245c-10.924 10.5792-32.772 36.4291-32.772 55.1955"/><path d="m257.349 60.0245c-10.924 10.5792-32.772 36.4291-32.772 55.1955"/><path d="m243.55 60.0245c-10.924 10.5792-32.772 36.4291-32.772 55.1955"/><path d="m229.752 60.0245c-10.925 10.5792-32.773 36.4291-32.773 55.1955"/><path d="m231.821 41.396c-18.168 17.7201-54.505 61.019-54.505 92.453"/><path d="m218.022 41.396c-18.168 17.7201-54.505 61.019-54.505 92.453"/><path d="m209.743 33.1167c-18.168 17.7201-54.505 61.0187-54.505 92.4523"/><path d="m201.464 24.8374c-18.169 17.72-54.506 61.0186-54.506 92.4526"/></g><path d="m212.339 60.1932c9.661 11.132 20.353 20.0974 18.361 21.8262s-13.756-5.4863-23.417-16.6182c-9.661-11.132-18.036-20.5051-16.044-22.2339s11.439 5.894 21.1 17.0259z" fill="#fff" opacity=".5"/><path d="m183.18 119.36-1.38-94.867-10.694 98.662z" fill="#000" fill-opacity=".5"/><path d="m329.735 70.3742s-47.31 29.415-59.277 32.8568l85.994 24.409 13.358-57.2658-40.075 32.8568z" fill="#dc6363"/><path d="m270.458 103.231c10.452-3.006 47.865-25.8253 57.17-31.5548.922-.5675 2.107.0985 2.107 1.1808v27.459c0 1.164 1.354 1.805 2.255 1.067l34.679-28.433c1.019-.8357 2.518.0969 2.218 1.3806l-12.435 53.3094" stroke="#000" stroke-linecap="round" stroke-width="5.51955"/><path d="m145.041 124.815s30.917 3.214 36.988 1.726l-22.131 32.077-25.704-26.494 25.22 4.702z" fill="#dc6363"/><path d="m181.372 123.861c1.481-.363 2.975.543 3.338 2.023s-.543 2.974-2.023 3.337zm-19.558 32.771c1.097 1.059 1.129 2.806.07 3.902-1.058 1.097-2.806 1.128-3.902.07zm-26.829-25.651.735-2.66zm-1.326 2.322 1.916-1.985zm24.964 1.509 1.869-2.031zm-8.437-11.246.433-2.726zm32.501 5.655c-1.587.389-3.983.398-6.471.282-2.605-.122-5.69-.406-8.864-.765-6.356-.718-13.215-1.751-17.598-2.447l.865-5.451c4.354.692 11.119 1.709 17.352 2.414 3.12.352 6.071.622 8.502.736 2.549.119 4.189.045 4.899-.129zm-31.797-5.274 9.602 8.834-3.738 4.061-9.602-8.834zm5.695 15.869-22.336-6.176 1.471-5.319 22.336 6.176zm-21.01-8.498 26.239 25.314-3.832 3.972-26.24-25.315zm-1.326 2.322c1.379.382 2.356-1.329 1.326-2.322l-3.833 3.971c-3.089-2.98-.159-8.112 3.978-6.968zm26.243-.859c3.197 2.942.281 8.194-3.907 7.035l1.471-5.319c-1.396-.386-2.368 1.365-1.302 2.345zm-10.738-6.49c1.35.214 2.128-1.431 1.136-2.344l-3.738 4.061c-3.016-2.775-.6-7.814 3.467-7.168z" fill="#000"/><path d="m183.234 10.028c-1.826-2.69399-5.871-2.69399-7.697 0-3.195-.61417-6.056 2.2465-5.442 5.4422-2.694 1.8254-2.694 5.871 0 7.6964-.614 3.1957 2.247 6.0564 5.442 5.4422 1.826 2.694 5.871 2.694 7.697 0 3.195.6142 6.056-2.2465 5.442-5.4422 2.694-1.8254 2.694-5.871 0-7.6964.614-3.1957-2.247-6.05637-5.442-5.4422z" fill="#9affcf" stroke="#000" stroke-width="5.51955"/><path d="m175.69 16.568.189-.6096c.701-2.2535-1.223-4.4534-3.549-4.0595-1.024.1732-1.897.8371-2.337 1.7767l-2.37 5.0543c-.418.8907-.435 1.9175-.048 2.8219l2.364 5.5229c.471 1.0988 1.476 1.8759 2.658 2.0537l6.193.9318c1.04.1565 1.975-.6488 1.975-1.7005 0-.1821-.029-.3631-.085-.5362l-.673-2.0505c-.215-.6548-.826-1.0974-1.515-1.0974-1.086 0-1.854-1.0606-1.515-2.0918l.127-.3895c.191-.582.089-1.2206-.275-1.7134l-.62-.8395c-.652-.8834-.845-2.0247-.519-3.0734z" fill="#000" fill-opacity=".5"/><path d="m276.039 302.356c-9.164-2.215-14.137 10.464-18.362 20.668-.321.777 2.573 3.349 3.355 3.043 4.771-1.866 12.743-3.702 25.64-3.702 12.127 0 19.9 1.623 24.752 3.369.798.287 3.911-2.666 3.546-3.432-4.805-10.082-10.495-21.838-17.226-19.946-8.592 2.415-13.142 2.07-21.705 0z" fill="#dc6363"/><path d="m253.899 330.138 2.073-2.801c4.479-6.052 10.614-10.678 17.665-13.318l1.287-.482c8.227-3.081 17.305-2.994 25.471.244 7.019 2.782 12.965 7.735 16.969 14.136l1.39 2.221" stroke="#000" stroke-linecap="round" stroke-width="5.51955"/><path d="m205.095 229.751 5.61 5.611c3.099 3.098 3.099 8.122 0 11.221-3.098 3.098-8.122 3.098-11.22 0-3.099-3.099-3.099-8.123 0-11.221z" fill="#57ebff"/></svg>