<svg width="494" height="494" viewBox="0 0 494 494" fill="none" xmlns="http://www.w3.org/2000/svg">
<g clip-path="url(#clip0_135_11250)">
<path d="M151.787 169.726C151.787 135.432 153.08 132.685 183.162 116.218C221.333 95.3231 278.653 91.3683 316.314 94.633C354.957 97.9827 366.36 110.987 366.36 133.849V318.754C366.36 353.048 337.869 380.849 303.575 380.849L239.019 383.108C239.019 386.373 245.293 404.675 254.906 408.449C283.085 414.233 323.872 411.684 343.1 420.018C369.863 431.617 366.033 479.107 372.128 503.491C360.246 515.21 97.6776 504.508 91.2609 507.063C81.6017 510.908 91.2609 442.013 107.315 427.418C105.307 423.883 154.132 396.403 153.076 383.034C150.832 354.634 151.787 314.209 151.787 304.955V169.726Z" fill="#DC6363"/>
<path d="M379.469 195.256C379.469 171.266 359.142 159.199 335.209 160.858L276.667 164.678L221.575 160.858C197.643 159.199 177.315 178.166 177.315 202.156V219.454C177.315 242.317 195.849 260.851 218.712 260.851H220.409C223.838 260.851 226.618 263.631 226.618 267.06V320.824C226.618 343.687 245.152 367.051 268.015 367.051H305.559C328.422 367.051 350.406 344.377 350.406 321.514V262.171C350.406 259.454 352.195 257.095 354.684 256.003C369.276 249.603 379.469 231.58 379.469 214.625V195.256Z" fill="#DC6363"/>
<path d="M75.6387 209.042C75.6387 236.863 98.1922 259.416 126.013 259.416C139.085 259.416 150.994 254.437 159.948 246.272V171.811C150.994 163.646 139.085 158.667 126.013 158.667C98.1922 158.667 75.6387 181.22 75.6387 209.042Z" fill="#DC6363"/>
<path d="M412.356 209.645C423.246 231.674 411.857 259.527 386.917 271.856C375.198 277.649 363.264 278.984 352.041 276.487L322.205 217.529C327.035 207.096 336.451 197.876 348.17 192.083C373.11 179.753 401.466 187.616 412.356 209.645Z" fill="#DC6363"/>
<path d="M366.528 277.546C373.476 277.061 380.128 275.212 386.917 271.856C411.857 259.526 423.246 231.674 412.356 209.645C405.859 196.502 392.898 188.401 378.203 186.623" stroke="black" stroke-width="5.51955" stroke-linecap="round"/>
<path d="M383.091 253.71C397.621 246.528 404.256 230.301 397.912 217.468C394.575 210.718 388.311 206.251 381.009 204.578" stroke="black" stroke-width="5.51955" stroke-linecap="round"/>
<path d="M192.625 403.728C194.115 403.408 195.583 404.357 195.902 405.847C196.222 407.338 195.273 408.805 193.783 409.125L192.625 403.728ZM146.174 414.64C144.741 415.161 143.158 414.422 142.637 412.989C142.116 411.557 142.855 409.973 144.288 409.453L146.174 414.64ZM193.783 409.125C181.953 411.662 175.591 410.863 169.482 410.571C163.672 410.292 157.76 410.427 146.174 414.64L144.288 409.453C156.614 404.971 163.262 404.747 169.747 405.057C175.933 405.354 181.601 406.092 192.625 403.728L193.783 409.125Z" fill="black"/>
<path d="M232.643 403.728C231.153 403.408 229.686 404.357 229.366 405.847C229.047 407.337 229.996 408.805 231.486 409.124L232.643 403.728ZM274.719 413.285C276.24 413.394 277.561 412.251 277.67 410.73C277.78 409.21 276.636 407.889 275.116 407.78L274.719 413.285ZM231.486 409.124C254.567 414.075 251.885 411.641 274.719 413.285L275.116 407.78C251.271 406.063 255.27 408.581 232.643 403.728L231.486 409.124Z" fill="black"/>
<path opacity="0.4" d="M250.192 407.488C250.192 407.488 201.07 377.809 196.638 354.896C218.125 381.815 234.116 381.815 237.364 381.815C240.612 381.815 250.192 407.488 250.192 407.488Z" fill="#393C40"/>
<path d="M204.242 441.186L184.167 494.252C178.965 508 190.028 522.389 205.439 521.921L292.47 519.279C306.228 518.861 316.123 506.657 312.735 494.021C308.099 476.731 301.559 453.766 295.401 437.168C291.908 427.75 281.114 428.51 277.328 437.826C272.815 448.935 252.629 451.066 243.737 442.655C240.428 439.524 237.037 436.495 233.776 433.683C223.98 425.24 208.71 429.376 204.242 441.186Z" fill="#6C6E77"/>
<path opacity="0.4" d="M162.61 473.948C162.61 473.948 199.076 518.265 195.641 541.349C184.322 508.819 169.24 503.504 166.177 502.424C163.113 501.345 162.61 473.948 162.61 473.948Z" fill="#393C40"/>
<path d="M179.701 117.66L180.898 120.146L179.701 117.66ZM324.963 94.5222V91.7624V94.5222ZM366.936 168.621L365.268 170.82V170.82L366.936 168.621ZM366.977 249.158L368.572 251.41L368.572 251.41L366.977 249.158ZM179.095 329.446C178.286 328.155 176.583 327.764 175.291 328.573C174 329.382 173.609 331.085 174.418 332.377L179.095 329.446ZM133.291 407.991L134.647 410.395H134.647L133.291 407.991ZM102.882 431.027L105.226 432.482L102.882 431.027ZM89.922 534.551L92.6805 534.468L92.6805 534.468L89.922 534.551ZM87.2094 536.15C87.2556 537.673 88.5281 538.871 90.0516 538.825C91.5751 538.778 92.7727 537.506 92.7265 535.982L87.2094 536.15ZM152.399 156.724L149.639 156.73L152.399 156.724ZM149.718 164.896C149.718 166.421 150.953 167.656 152.477 167.656C154.001 167.656 155.237 166.421 155.237 164.896H149.718ZM155.237 253.802C155.237 252.278 154.001 251.042 152.477 251.042C150.953 251.042 149.718 252.278 149.718 253.802H155.237ZM180.898 120.146C238.427 92.444 267.384 97.2819 324.963 97.2819V91.7624C267.701 91.7624 237.381 86.8218 178.504 115.173L180.898 120.146ZM304.265 380.159H245.293V385.679H304.265V380.159ZM363.6 320.824C363.6 353.594 337.035 380.159 304.265 380.159V385.679C340.083 385.679 369.12 356.642 369.12 320.824H363.6ZM324.963 97.2819C346.302 97.2819 363.6 114.58 363.6 135.919H369.12C369.12 111.532 349.35 91.7624 324.963 91.7624V97.2819ZM365.268 170.82C369.16 173.772 372.377 179.076 374.632 185.957C376.869 192.782 378.062 200.866 378.125 208.997C378.188 217.13 377.12 225.186 374.926 231.961C372.716 238.785 369.464 244.014 365.382 246.906L368.572 251.41C374.015 247.555 377.781 241.059 380.177 233.662C382.588 226.216 383.711 217.554 383.645 208.955C383.578 200.353 382.32 191.691 379.877 184.238C377.452 176.84 373.759 170.333 368.604 166.423L365.268 170.82ZM245.293 380.159C228.533 380.159 212.102 367.931 199.523 354.991C193.311 348.602 188.193 342.202 184.627 337.394C182.845 334.992 181.455 332.994 180.513 331.601C180.043 330.904 179.684 330.36 179.446 329.992C179.326 329.808 179.237 329.669 179.178 329.577C179.149 329.531 179.127 329.497 179.113 329.475C179.106 329.464 179.101 329.456 179.098 329.451C179.097 329.449 179.096 329.447 179.095 329.446C179.095 329.446 179.095 329.446 179.095 329.446C179.095 329.446 179.095 329.446 176.757 330.912C174.418 332.377 174.418 332.378 174.419 332.379C174.419 332.379 174.42 332.38 174.421 332.382C174.422 332.384 174.424 332.387 174.427 332.391C174.432 332.399 174.439 332.41 174.448 332.424C174.465 332.452 174.491 332.492 174.524 332.545C174.591 332.649 174.689 332.802 174.817 332.999C175.073 333.393 175.45 333.966 175.941 334.692C176.922 336.143 178.358 338.208 180.194 340.682C183.861 345.625 189.137 352.227 195.565 358.839C208.267 371.903 226.104 385.679 245.293 385.679V380.159ZM131.936 405.587C125.993 408.938 119.534 412.745 113.913 416.752C108.355 420.714 103.335 425.064 100.537 429.571L105.226 432.482C107.419 428.949 111.68 425.122 117.117 421.246C122.491 417.415 128.742 413.724 134.647 410.395L131.936 405.587ZM100.537 429.571C92.55 442.438 88.8863 457.191 87.3682 474.418C85.8537 491.604 86.461 511.483 87.1635 534.635L92.6805 534.468C91.9749 511.213 91.3867 491.695 92.8664 474.903C94.3425 458.152 97.8626 444.345 105.226 432.482L100.537 429.571ZM87.1635 534.635L87.2094 536.15L92.7265 535.982L92.6805 534.468L87.1635 534.635ZM369.12 167.482V135.919H363.6V167.482H369.12ZM363.6 250.326V320.824H369.12V250.326H363.6ZM178.504 115.173C169.992 119.272 162.697 123.862 157.57 130.42C152.382 137.056 149.615 145.44 149.639 156.73L155.159 156.718C155.137 146.408 157.636 139.297 161.918 133.82C166.262 128.265 172.641 124.123 180.898 120.146L178.504 115.173ZM149.639 156.73C149.644 158.715 149.664 159.462 149.682 160.362C149.7 161.235 149.718 162.279 149.718 164.896H155.237C155.237 162.248 155.22 161.165 155.201 160.248C155.182 159.357 155.163 158.651 155.159 156.718L149.639 156.73ZM155.237 374.441V269.377H149.718V374.441H155.237ZM155.237 269.377V253.802H149.718V269.377H155.237ZM365.382 246.906C364.313 247.663 363.6 248.912 363.6 250.326H369.12C369.12 250.805 368.878 251.193 368.572 251.41L365.382 246.906ZM368.604 166.423C368.897 166.645 369.12 167.026 369.12 167.482H363.6C363.6 168.841 364.257 170.053 365.268 170.82L368.604 166.423ZM134.647 410.395C147.877 402.936 155.237 389.514 155.237 374.441H149.718C149.718 387.639 143.332 399.162 131.936 405.587L134.647 410.395Z" fill="black"/>
<path d="M158.343 174.084C159.461 175.119 161.207 175.052 162.243 173.933C163.278 172.814 163.21 171.068 162.091 170.033L158.343 174.084ZM162.091 248.05C163.21 247.015 163.278 245.269 162.243 244.15C161.207 243.031 159.461 242.963 158.343 243.999L162.091 248.05ZM126.013 256.656C99.7161 256.656 78.3982 235.338 78.3982 209.041H72.8787C72.8787 238.387 96.6677 262.176 126.013 262.176V256.656ZM78.3982 209.041C78.3982 182.744 99.7161 161.427 126.013 161.427V155.907C96.6677 155.907 72.8787 179.696 72.8787 209.041H78.3982ZM126.013 161.427C138.495 161.427 149.85 166.226 158.343 174.084L162.091 170.033C152.618 161.268 139.939 155.907 126.013 155.907V161.427ZM158.343 243.999C149.85 251.857 138.495 256.656 126.013 256.656V262.176C139.939 262.176 152.618 256.815 162.091 248.05L158.343 243.999Z" fill="black"/>
<path d="M125.186 239.231C123.662 239.179 122.385 240.372 122.334 241.895C122.282 243.418 123.475 244.695 124.998 244.747L125.186 239.231ZM90.19 204.469C90.0204 205.984 91.1108 207.349 92.6255 207.519C94.1403 207.689 95.5057 206.598 95.6752 205.083L90.19 204.469ZM106.123 185.256C118.966 174.156 138.376 175.57 149.476 188.413L153.652 184.804C140.559 169.654 117.664 167.987 102.514 181.079L106.123 185.256ZM149.476 188.413C160.576 201.257 159.162 220.667 146.318 231.767L149.927 235.943C165.077 222.85 166.745 199.955 153.652 184.804L149.476 188.413ZM146.318 231.767C140.221 237.036 132.652 239.484 125.186 239.231L124.998 244.747C133.799 245.046 142.738 242.156 149.927 235.943L146.318 231.767ZM95.6752 205.083C96.5064 197.659 100.026 190.524 106.123 185.256L102.514 181.079C95.3246 187.292 91.1697 195.718 90.19 204.469L95.6752 205.083Z" fill="black"/>
<path d="M239.424 383.103V383.103C239.424 396.313 249.283 407.445 262.396 409.041L332.634 417.591C348.208 419.487 360.542 431.653 362.65 447.2L376.55 549.713" stroke="black" stroke-width="5.51955"/>
<path d="M334.859 475.476C334.563 473.981 333.111 473.009 331.616 473.305C330.121 473.601 329.149 475.053 329.445 476.548L334.859 475.476ZM332.397 515.997C332.397 517.521 333.632 518.757 335.156 518.757C336.681 518.757 337.916 517.521 337.916 515.997H332.397ZM329.445 476.548C333.447 496.77 332.397 502.298 332.397 515.997H337.916C337.916 502.463 338.988 496.339 334.859 475.476L329.445 476.548Z" fill="black"/>
<path d="M163.753 475.476C163.457 473.981 162.005 473.009 160.51 473.305C159.015 473.601 158.042 475.053 158.338 476.548L163.753 475.476ZM161.29 515.997C161.29 517.521 162.526 518.757 164.05 518.757C165.574 518.757 166.81 517.521 166.81 515.997H161.29ZM158.338 476.548C162.341 496.77 161.29 502.298 161.29 515.997H166.81C166.81 502.463 167.882 496.339 163.753 475.476L158.338 476.548Z" fill="black"/>
<path d="M371.19 200.801C371.19 176.811 350.862 161.984 326.93 163.643C298.173 170.249 268.367 170.89 239.352 165.526L229.165 163.643C205.232 161.984 184.905 180.95 184.905 204.94V233.278C184.905 256.141 186.19 274.675 209.053 274.675H210.75C214.179 274.675 216.959 277.455 216.959 280.884V324.299C216.959 347.162 235.493 365.696 258.356 365.696H311.769C334.632 365.696 353.166 347.162 353.166 324.299V251.957C353.166 249.798 354.455 247.846 356.3 246.725C360.548 244.146 367.784 238.534 369.36 229.548C371.624 216.645 371.19 200.801 371.19 200.801Z" fill="#FF8585"/>
</g>
<circle cx="226.067" cy="212.305" r="31.9352" fill="#DC6363"/>
<circle cx="340.668" cy="212.305" r="31.9352" fill="#DC6363"/>
<path d="M209.269 215.814L213.383 219.927C220.388 226.933 231.746 226.933 238.751 219.927L242.865 215.814" stroke="black" stroke-width="5.51955" stroke-linecap="round" stroke-linejoin="round"/>
<path d="M323.87 215.814L327.983 219.927C334.989 226.933 346.347 226.933 353.352 219.927L357.466 215.814" stroke="black" stroke-width="5.51955" stroke-linecap="round" stroke-linejoin="round"/>
<path d="M312.112 263.778C312.112 255.093 305.071 248.052 296.386 248.052H275.747C267.062 248.052 260.021 255.093 260.021 263.778C260.021 267.588 263.11 270.677 266.92 270.677C269.278 270.677 271.19 272.589 271.19 274.947V276.959C271.19 280.428 274.002 283.24 277.471 283.24H294.662C298.131 283.24 300.943 280.428 300.943 276.959V274.947C300.943 272.589 302.855 270.677 305.213 270.677C309.023 270.677 312.112 267.588 312.112 263.778Z" fill="#DC6363"/>
<path d="M280.807 256.743C280.807 254.083 278.651 251.927 275.991 251.927H273.882C268.561 251.927 264.248 256.24 264.248 261.56V262.289C264.248 264.949 266.405 267.105 269.065 267.105H271.174C276.494 267.105 280.807 262.793 280.807 257.472V256.743Z" fill="black"/>
<path d="M291.846 256.743C291.846 254.083 294.003 251.927 296.663 251.927H298.772C304.092 251.927 308.405 256.24 308.405 261.56V262.289C308.405 264.949 306.248 267.105 303.588 267.105H301.479C296.159 267.105 291.846 262.793 291.846 257.472V256.743Z" fill="black"/>
<g clip-path="url(#clip1_135_11250)">
<path d="M204.242 441.186L184.167 494.252C178.965 508 190.028 522.389 205.439 521.921L292.47 519.279C306.228 518.861 316.123 506.657 312.735 494.021C308.099 476.731 301.559 453.766 295.401 437.168C291.908 427.75 281.114 428.51 277.328 437.826C272.815 448.935 252.629 451.066 243.737 442.655C240.428 439.524 237.037 436.495 233.776 433.683C223.98 425.24 208.71 429.376 204.242 441.186Z" fill="#FF8585"/>
</g>
<circle cx="382.565" cy="253.933" r="1.66169" fill="black"/>
<path d="M178.31 122.629C196.526 113.791 206.081 109.343 216.223 106.25C226.383 103.152 237.186 101.396 257.961 98.0929C261.163 97.584 262.881 93.451 260.146 90.9636C250.329 82.0321 208.181 43.8256 185.348 25.3354C182.712 23.2006 178.982 24.9918 178.654 28.1414C173.874 73.9862 172.609 109.746 172.349 118.836C172.255 122.135 175.699 123.896 178.31 122.629Z" fill="#2166ED" stroke="black" stroke-width="5.51955"/>
<mask id="mask0_135_11250" style="mask-type:alpha" maskUnits="userSpaceOnUse" x="175" y="27" width="84" height="94">
<path d="M257.529 95.3674C216.105 101.953 213.466 102.504 177.106 120.146C176.178 120.596 175.079 119.946 175.108 118.915C175.367 109.868 176.629 74.1819 181.399 28.4276C181.512 27.3438 182.765 26.7945 183.612 27.4802C206.37 45.9096 248.452 84.0559 258.29 93.0051C259.145 93.7829 258.67 95.1859 257.529 95.3674Z" fill="#ED2146"/>
</mask>
<g mask="url(#mask0_135_11250)">
<path d="M271.148 60.0245C260.224 70.6037 238.376 96.4536 238.376 115.22" stroke="#FB6464" stroke-width="4.82961"/>
<path d="M257.349 60.0245C246.425 70.6037 224.577 96.4536 224.577 115.22" stroke="#FB6464" stroke-width="4.82961"/>
<path d="M243.55 60.0245C232.626 70.6037 210.778 96.4536 210.778 115.22" stroke="#FB6464" stroke-width="4.82961"/>
<path d="M229.752 60.0245C218.827 70.6037 196.979 96.4536 196.979 115.22" stroke="#FB6464" stroke-width="4.82961"/>
<path d="M231.821 41.396C213.653 59.1161 177.316 102.415 177.316 133.849" stroke="#FB6464" stroke-width="4.82961"/>
<path d="M218.022 41.396C199.854 59.1161 163.517 102.415 163.517 133.849" stroke="#FB6464" stroke-width="4.82961"/>
<path d="M209.743 33.1167C191.575 50.8368 155.238 94.1354 155.238 125.569" stroke="#FB6464" stroke-width="4.82961"/>
<path d="M201.464 24.8374C183.295 42.5574 146.958 85.856 146.958 117.29" stroke="#FB6464" stroke-width="4.82961"/>
</g>
<path opacity="0.5" d="M212.339 60.1932C222 71.3252 232.692 80.2906 230.7 82.0194C228.708 83.7482 216.944 76.5331 207.283 65.4012C197.622 54.2692 189.247 44.8961 191.239 43.1673C193.231 41.4385 202.678 49.0613 212.339 60.1932Z" fill="white"/>
<path d="M183.18 119.36L181.8 24.493L171.106 123.155L183.18 119.36Z" fill="black" fill-opacity="0.5"/>
<path d="M329.735 70.3742C329.735 70.3742 282.425 99.7892 270.458 103.231L356.452 127.64L369.81 70.3742L329.735 103.231V70.3742Z" fill="#DC6363"/>
<path d="M270.458 103.231C280.91 100.225 318.323 77.4057 327.628 71.6762C328.55 71.1087 329.735 71.7747 329.735 72.857V100.316C329.735 101.48 331.089 102.121 331.99 101.383L366.669 72.95C367.688 72.1143 369.187 73.0469 368.887 74.3306L356.452 127.64" stroke="black" stroke-width="5.51955" stroke-linecap="round"/>
<path d="M145.041 124.815C145.041 124.815 175.958 128.029 182.029 126.541L159.898 158.618L134.194 132.124L159.414 136.826L145.041 124.815Z" fill="#DC6363"/>
<path d="M181.372 123.861C182.853 123.498 184.347 124.404 184.71 125.884C185.073 127.364 184.167 128.858 182.687 129.221L181.372 123.861ZM161.814 156.632C162.911 157.691 162.943 159.438 161.884 160.534C160.826 161.631 159.078 161.662 157.982 160.604L161.814 156.632ZM134.985 130.981L135.72 128.321L134.985 130.981ZM133.659 133.303L135.575 131.318L133.659 133.303ZM158.623 134.812L160.492 132.781L158.623 134.812ZM150.186 123.566L150.619 120.84L150.186 123.566ZM182.687 129.221C181.1 129.61 178.704 129.619 176.216 129.503C173.611 129.381 170.526 129.097 167.352 128.738C160.996 128.02 154.137 126.987 149.754 126.291L150.619 120.84C154.973 121.532 161.738 122.549 167.971 123.254C171.091 123.606 174.042 123.876 176.473 123.99C179.022 124.109 180.662 124.035 181.372 123.861L182.687 129.221ZM150.89 123.947L160.492 132.781L156.754 136.842L147.152 128.008L150.89 123.947ZM156.585 139.816L134.249 133.64L135.72 128.321L158.056 134.497L156.585 139.816ZM135.575 131.318L161.814 156.632L157.982 160.604L131.742 135.289L135.575 131.318ZM134.249 133.64C135.628 134.022 136.605 132.311 135.575 131.318L131.742 135.289C128.653 132.309 131.583 127.177 135.72 128.321L134.249 133.64ZM160.492 132.781C163.689 135.723 160.773 140.975 156.585 139.816L158.056 134.497C156.66 134.111 155.688 135.862 156.754 136.842L160.492 132.781ZM149.754 126.291C151.104 126.505 151.882 124.86 150.89 123.947L147.152 128.008C144.136 125.233 146.552 120.194 150.619 120.84L149.754 126.291Z" fill="black"/>
<path d="M183.234 10.028C181.408 7.33401 177.363 7.33401 175.537 10.028C172.342 9.41383 169.481 12.2745 170.095 15.4702C167.401 17.2956 167.401 21.3412 170.095 23.1666C169.481 26.3623 172.342 29.223 175.537 28.6088C177.363 31.3028 181.408 31.3028 183.234 28.6088C186.429 29.223 189.29 26.3623 188.676 23.1666C191.37 21.3412 191.37 17.2956 188.676 15.4702C189.29 12.2745 186.429 9.41383 183.234 10.028Z" fill="#9AFFCF" stroke="black" stroke-width="5.51955"/>
<path d="M175.69 16.568L175.879 15.9584C176.58 13.7049 174.656 11.505 172.33 11.8989C171.306 12.0721 170.433 12.736 169.993 13.6756L167.623 18.7299C167.205 19.6206 167.188 20.6474 167.575 21.5518L169.939 27.0747C170.41 28.1735 171.415 28.9506 172.597 29.1284L178.79 30.0602C179.83 30.2167 180.765 29.4114 180.765 28.3597C180.765 28.1776 180.736 27.9966 180.68 27.8235L180.007 25.773C179.792 25.1182 179.181 24.6756 178.492 24.6756C177.406 24.6756 176.638 23.615 176.977 22.5838L177.104 22.1943C177.295 21.6123 177.193 20.9737 176.829 20.4809L176.209 19.6414C175.557 18.758 175.364 17.6167 175.69 16.568Z" fill="black" fill-opacity="0.5"/>
<path d="M276.039 302.356C266.875 300.141 261.902 312.82 257.677 323.024C257.356 323.801 260.25 326.373 261.032 326.067C265.803 324.201 273.775 322.365 286.672 322.365C298.799 322.365 306.572 323.988 311.424 325.734C312.222 326.021 315.335 323.068 314.97 322.302C310.165 312.22 304.475 300.464 297.744 302.356C289.152 304.771 284.602 304.426 276.039 302.356Z" fill="#DC6363"/>
<path d="M253.899 330.138L255.972 327.337C260.451 321.285 266.586 316.659 273.637 314.019L274.924 313.537C283.151 310.456 292.229 310.543 300.395 313.781V313.781C307.414 316.563 313.36 321.516 317.364 327.917L318.754 330.138" stroke="black" stroke-width="5.51955" stroke-linecap="round"/>
<path d="M205.095 229.751L210.705 235.362C213.804 238.46 213.804 243.484 210.705 246.583C207.607 249.681 202.583 249.681 199.485 246.583C196.386 243.484 196.386 238.46 199.485 235.362L205.095 229.751Z" fill="#57EBFF"/>
<defs>
<clipPath id="clip0_135_11250">
<rect width="494" height="494" fill="white"/>
</clipPath>
<clipPath id="clip1_135_11250">
<rect width="494" height="494" fill="white"/>
</clipPath>
</defs>
</svg>
