<svg fill="none" height="50" viewBox="0 0 61 50" width="61" xmlns="http://www.w3.org/2000/svg"><path d="m60.312 6.50102c-2.2189.9851-4.6038 1.64853-7.1067 1.94758 2.5557-1.53042 4.5183-3.95547 5.4406-6.84543-2.3898 1.41733-5.0386 2.44767-7.8582 3.00304-2.2541-2.40495-5.4733-3.907724-9.0317-3.907724-7.9888 0-13.8592 7.453574-12.0549 15.191114-10.2807-.5152-19.3979-5.4406-25.50199-12.92689-3.241776 5.56128-1.6812 12.83639 3.82731 16.52049-2.02548-.0653-3.93537-.6207-5.60149-1.548-.1357 5.7322 3.97306 11.0949 9.92387 12.2886-1.7415.4724-3.64889.583-5.58893.2111 1.57314 4.9154 6.14183 8.4914 11.55983 8.592-5.2019 4.0786-11.75585 5.9005-18.31982207 5.1265 5.47584207 3.5107 11.98202207 5.5588 18.96822207 5.5588 22.9739 0 35.9535-19.403 35.1695-36.8055 2.4175-1.7466 4.5159-3.92534 6.1744-6.40568z" fill="#fff"/></svg>