<svg fill="none" height="38" viewBox="0 0 43 38" width="43" xmlns="http://www.w3.org/2000/svg" xmlns:xlink="http://www.w3.org/1999/xlink"><filter id="a" color-interpolation-filters="sRGB" filterUnits="userSpaceOnUse" height="36.9871" width="42.821" x=".160767" y=".749634"><feFlood flood-opacity="0" result="BackgroundImageFix"/><feColorMatrix in="SourceAlpha" result="hardAlpha" type="matrix" values="0 0 0 0 0 0 0 0 0 0 0 0 0 0 0 0 0 0 127 0"/><feOffset dy="1.55713"/><feGaussianBlur stdDeviation="2.91962"/><feColorMatrix type="matrix" values="0 0 0 0 0 0 0 0 0 0 0 0 0 0 0 0 0 0 0.04 0"/><feBlend in2="BackgroundImageFix" mode="normal" result="effect1_dropShadow_239_4719"/><feColorMatrix in="SourceAlpha" result="hardAlpha" type="matrix" values="0 0 0 0 0 0 0 0 0 0 0 0 0 0 0 0 0 0 127 0"/><feOffset dy="1.16785"/><feGaussianBlur stdDeviation=".778564"/><feColorMatrix type="matrix" values="0 0 0 0 0 0 0 0 0 0 0 0 0 0 0 0 0 0 0.03 0"/><feBlend in2="effect1_dropShadow_239_4719" mode="normal" result="effect2_dropShadow_239_4719"/><feColorMatrix in="SourceAlpha" result="hardAlpha" type="matrix" values="0 0 0 0 0 0 0 0 0 0 0 0 0 0 0 0 0 0 127 0"/><feOffset dy=".389282"/><feGaussianBlur stdDeviation=".194641"/><feColorMatrix type="matrix" values="0 0 0 0 0 0 0 0 0 0 0 0 0 0 0 0 0 0 0.02 0"/><feBlend in2="effect2_dropShadow_239_4719" mode="normal" result="effect3_dropShadow_239_4719"/><feColorMatrix in="SourceAlpha" result="hardAlpha" type="matrix" values="0 0 0 0 0 0 0 0 0 0 0 0 0 0 0 0 0 0 127 0"/><feOffset dy=".194641"/><feGaussianBlur stdDeviation=".0973206"/><feColorMatrix type="matrix" values="0 0 0 0 0 0 0 0 0 0 0 0 0 0 0 0 0 0 0.1 0"/><feBlend in2="effect3_dropShadow_239_4719" mode="normal" result="effect4_dropShadow_239_4719"/><feBlend in="SourceGraphic" in2="effect4_dropShadow_239_4719" mode="normal" result="shape"/></filter><g filter="url(#a)"><path d="m37.1426 8.02791c-1.1458.50867-2.3772.85123-3.6697 1.00565 1.3197-.79024 2.3331-2.04243 2.8094-3.53468-1.2341.73185-2.6017 1.26387-4.0577 1.55064-1.1639-1.24181-2.8261-2.01778-4.6636-2.01778-4.1251 0-7.1563 3.8487-6.2246 7.84406-5.3085-.266-10.0162-2.8093-13.1681-6.67492-1.67391 2.87161-.8681 6.62822 1.9763 8.53052-1.04591-.0338-2.0321-.3206-2.89241-.7994-.07007 2.9599 2.05152 5.729 5.12421 6.3453-.8992.244-1.8841.3011-2.88584.109.81234 2.5381 3.17134 4.3846 5.96904 4.4365-2.6861 2.1061-6.07025 3.0468-9.4596 2.6472 2.82749 1.8127 6.187 2.8703 9.7943 2.8703 11.8628 0 18.5649-10.0189 18.1601-19.0048 1.2483-.9018 2.3318-2.02685 3.1882-3.30759z" fill="#000"/></g></svg>