<svg fill="none" height="24" viewBox="0 0 81 24" width="81" xmlns="http://www.w3.org/2000/svg"><path clip-rule="evenodd" d="m12.5301 10.3932c-.5178 0-.9375.4197-.9375.9375v2.6004c0 .5177.4197.9375.9375.9375h2.6297c.5727 0 1.0245.5165.8229 1.0525-.0807.2148-.1757.4136-.2849.5963-.2698.4514-.6168.8244-1.0408 1.1188-.4047.2748-.8672.4809-1.3876.6183-.5204.1178-1.06.1767-1.619.1767-.9443 0-1.77308-.1571-2.48618-.4711-.7131-.3337-1.31057-.795-1.7924-1.3838-.48182-.5889-.84801-1.2857-1.09856-2.0905-.23128-.8048-.34692-1.6783-.34692-2.6204 0-1.0404.13492-1.98254.40474-2.82657.28909-.84404.67456-1.56049 1.15638-2.14935.5011-.60849 1.09857-1.06977 1.7924-1.38383.69383-.33369 1.46474-.50053 2.31274-.50053 1.0215 0 1.9273.26499 2.7175.79496.606.39675 1.1256.986 1.5587 1.76776.2525.45557.7984.68774 1.2783.4854l3.6014-1.5184c.4927-.20775.7153-.7873.4509-1.25215-.946-1.66354-2.1535-2.92397-3.6225-3.7813-1.7153-1.00107-3.7101-1.50160362-5.9843-1.50160362-1.75382 0-3.34385.28461762-4.77006.85385062-1.4262.569233-2.65004 1.364203-3.67152 2.384893-1.0022 1.02069-1.78275 2.25731-2.341673 3.70983-.539646 1.4329-.80946907 3.01302-.80946907 4.74034 0 1.747.27945907 3.3467.83837807 4.7992.558924 1.4329 1.339474 2.6695 2.341674 3.7099 1.0022 1.0207 2.19713 1.8156 3.58479 2.3849 1.40694.5692 2.95842.8538 4.65448.8538 1.2334 0 2.4091-.157 3.5269-.4711 1.1179-.314 2.1393-.7655 3.0645-1.3544.9443-.6085 1.7634-1.3543 2.4573-2.2376.6938-.903 1.2431-1.9335 1.6478-3.0916.2891-.8244.4818-1.7175.5782-2.6793.0702-.7001.1148-1.4574.1339-2.2718.0121-.5176-.4091-.9375-.9268-.9375zm11.7992 11.3334c-.0952.5714.3454 1.0916.9247 1.0916h3.721c.4651 0 .8599-.341.9275-.8011l1.2394-8.4279c.1404-.955 1.4584-1.1001 1.8031-.1984l3.3741 8.8247c.1388.363.4871.6027.8757.6027h.9766c.3826 0 .7267-.2324.8696-.5873l3.6161-8.9793c.3573-.8873 1.6579-.7326 1.7971.2138l1.2575 8.5517c.0677.4601.4625.8011.9275.8011h3.7211c.5793 0 1.0199-.5202.9247-1.0916l-3.3879-20.32517c-.0754-.452032-.4665-.783337-.9248-.783337h-4.1593c-.3934 0-.7449.245596-.8803.614967l-3.2338 8.82654c-.3001.819-1.458.8203-1.7598.0019l-3.2567-8.83033c-.1359-.368389-.487-.613077-.8796-.613077h-4.1609c-.4582 0-.8493.331305-.9247.783337zm34.8261-21.538215c-3.1065 0-5.6248 2.518315-5.6248 5.624815v4.14958c0 1.87132 1.517 3.38832 3.3883 3.38832 1.8712 0 3.3882 1.5169 3.3882 3.3882v1.2369c0 2.5543 2.0708 4.6251 4.6251 4.6251h4.485c2.5543 0 4.6251-2.0708 4.6251-4.6251v-1.1459c0-1.9215 1.5577-3.4792 3.4793-3.4792 1.9215 0 3.4793-1.5578 3.4793-3.47934v-4.05856c0-3.10649-2.5184-5.624815-5.6249-5.624815zm1.515 11.277015c2.183 0 3.9526-1.93751 3.9526-4.32759 0-2.39007-1.7696-4.32761-3.9526-4.32761s-3.9526 1.93754-3.9526 4.32761c0 2.39008 1.7696 4.32759 3.9526 4.32759zm17.0853-4.32759c0 2.39008-1.7697 4.32759-3.9527 4.32759-2.1829 0-3.9526-1.93751-3.9526-4.32759 0-2.39007 1.7697-4.32761 3.9526-4.32761 2.183 0 3.9527 1.93754 3.9527 4.32761zm-13.3979 5.45639c-.5432 0-.9836.4403-.9836.9835v.4306c0 1.0864.8807 1.9671 1.9671 1.9671h.4307c.5431 0 .9835-.4403.9835-.9835v-.4307c0-1.0864-.8807-1.967-1.9671-1.967zm3.3841 1.9471c0-1.0863.8806-1.967 1.967-1.967h.4307c.5432 0 .9835.4403.9835.9835v.4307c0 1.0863-.8807 1.967-1.9671 1.967h-.4306c-.5432 0-.9835-.4403-.9835-.9835z" fill="#fff" fill-rule="evenodd"/></svg>