<svg width="82" height="24" viewBox="0 0 82 24" fill="none" xmlns="http://www.w3.org/2000/svg">
<path fill-rule="evenodd" clip-rule="evenodd" d="M12.6569 10.3934C12.1392 10.3934 11.7195 10.8131 11.7195 11.3309V13.9313C11.7195 14.4491 12.1392 14.8688 12.6569 14.8688H15.2866C15.8593 14.8688 16.3111 15.3853 16.1096 15.9213C16.0288 16.1362 15.9338 16.3349 15.8246 16.5176C15.5548 16.9691 15.2079 17.342 14.7839 17.6364C14.3791 17.9112 13.9166 18.1173 13.3962 18.2547C12.8758 18.3725 12.3362 18.4314 11.7773 18.4314C10.8329 18.4314 10.0042 18.2744 9.29105 17.9603C8.57795 17.6266 7.98048 17.1653 7.49866 16.5765C7.01683 15.9876 6.65064 15.2908 6.40009 14.486C6.16881 13.6812 6.05318 12.8078 6.05318 11.8656C6.05318 10.8253 6.18809 9.88307 6.45791 9.03904C6.74701 8.195 7.13247 7.47855 7.61429 6.88969C8.11539 6.2812 8.71286 5.81992 9.40669 5.50586C10.1005 5.17218 10.8714 5.00533 11.7195 5.00533C12.7409 5.00533 13.6468 5.27032 14.437 5.8003C15.0429 6.19704 15.5625 6.7863 15.9957 7.56806C16.2481 8.02363 16.794 8.25579 17.2739 8.05345L20.8753 6.53505C21.368 6.3273 21.5906 5.74776 21.3262 5.28291C20.3803 3.61936 19.1728 2.35893 17.7037 1.5016C15.9884 0.500534 13.9937 0 11.7195 0C9.96561 0 8.37558 0.284617 6.94937 0.853851C5.52317 1.42309 4.29933 2.21805 3.27786 3.23874C2.27566 4.25944 1.4951 5.49605 0.936178 6.94858C0.396532 8.38148 0.126709 9.96159 0.126709 11.6889C0.126709 13.4359 0.406168 15.0356 0.965087 16.4881C1.52401 17.921 2.30456 19.1577 3.30676 20.198C4.30896 21.2187 5.50389 22.0136 6.89155 22.5829C8.29849 23.1521 9.84997 23.4367 11.546 23.4367C12.7795 23.4367 13.9551 23.2797 15.073 22.9656C16.1908 22.6516 17.2123 22.2001 18.1374 21.6112C19.0818 21.0028 19.9009 20.2569 20.5947 19.3736C21.2885 18.4707 21.8378 17.4401 22.2425 16.282C22.5316 15.4576 22.7244 14.5645 22.8207 13.6027C22.8909 12.9026 22.9355 12.1454 22.9546 11.3309C22.9667 10.8133 22.5456 10.3934 22.0278 10.3934H12.6569ZM24.4561 21.7268C24.3609 22.2982 24.8015 22.8184 25.3809 22.8184H29.1019C29.5669 22.8184 29.9617 22.4775 30.0294 22.0173L31.2687 13.5894C31.4092 12.6344 32.7271 12.4894 33.0719 13.391L36.446 22.2157C36.5847 22.5787 36.933 22.8184 37.3216 22.8184H38.2982C38.6808 22.8184 39.025 22.586 39.1679 22.2311L42.7839 13.2518C43.1412 12.3645 44.4418 12.5192 44.581 13.4656L45.8386 22.0173C45.9062 22.4775 46.301 22.8184 46.7661 22.8184H50.4871C51.0664 22.8184 51.507 22.2982 51.4118 21.7268L48.0239 1.40164C47.9485 0.949611 47.5574 0.618307 47.0992 0.618307H42.9398C42.5464 0.618307 42.1949 0.863903 42.0596 1.23328L38.8257 10.0598C38.5257 10.8788 37.3678 10.8801 37.0659 10.0617L33.8092 1.23138C33.6733 0.862995 33.3223 0.618307 32.9296 0.618307H28.7688C28.3105 0.618307 27.9194 0.949611 27.844 1.40164L24.4561 21.7268ZM59.2822 0.188599C56.1757 0.188599 53.6574 2.70691 53.6574 5.81341V9.96299C53.6574 11.8343 55.1744 13.3513 57.0457 13.3513C58.917 13.3513 60.434 14.8683 60.434 16.7395V17.9764C60.434 20.5308 62.5047 22.6015 65.0591 22.6015H69.544C72.0984 22.6015 74.1691 20.5307 74.1691 17.9764V16.8306C74.1691 14.909 75.7268 13.3513 77.6484 13.3513C79.57 13.3513 81.1277 11.7935 81.1277 9.87198V5.81342C81.1277 2.70692 78.6094 0.188599 75.5029 0.188599H59.2822ZM60.7972 11.4656C62.9802 11.4656 64.7499 9.52811 64.7499 7.13803C64.7499 4.74795 62.9802 2.81041 60.7972 2.81041C58.6143 2.81041 56.8446 4.74795 56.8446 7.13803C56.8446 9.52811 58.6143 11.4656 60.7972 11.4656ZM77.8825 7.13803C77.8825 9.52811 76.1129 11.4656 73.9299 11.4656C71.7469 11.4656 69.9772 9.52811 69.9772 7.13803C69.9772 4.74795 71.7469 2.81041 73.9299 2.81041C76.1129 2.81041 77.8825 4.74795 77.8825 7.13803ZM64.4846 12.5944C63.9414 12.5944 63.5011 13.0347 63.5011 13.5779V14.0086C63.5011 15.0949 64.3818 15.9756 65.4681 15.9756H65.8988C66.442 15.9756 66.8823 15.5353 66.8823 14.9921V14.5614C66.8823 13.475 66.0016 12.5944 64.9153 12.5944H64.4846ZM67.8687 14.5416C67.8687 13.4552 68.7494 12.5745 69.8357 12.5745H70.2664C70.8096 12.5745 71.2499 13.0148 71.2499 13.558V13.9887C71.2499 15.0751 70.3692 15.9557 69.2829 15.9557H68.8522C68.309 15.9557 67.8687 15.5154 67.8687 14.9722V14.5416Z" fill="white"/>
</svg>
