<svg fill="none" height="11" viewBox="0 0 133 11" width="133" xmlns="http://www.w3.org/2000/svg"><path d="m5.47302 10.7081c2.772 0 4.77398-1.69405 5.17998-4.03205h-3.23398c-.238.952-.938 1.344-1.792 1.344-1.232 0-2.044-.784-2.044-2.562 0-1.736.756-2.506 2.002-2.506.91 0 1.582.434 1.82 1.358h3.26198c-.448-2.436-2.08598-4.045996-5.01198-4.045996-3.29 0-5.348004 2.015996-5.348004 5.193996 0 3.206 2.128004 5.25005 5.166004 5.25005zm10.95378-.014c3.108 0 5.278-2.01605 5.278-5.22205 0-3.192-2.17-5.207996-5.278-5.207996s-5.278 2.015996-5.278 5.207996c0 3.206 2.156 5.22205 5.278 5.22205zm0-2.68805c-1.176 0-2.002-.742-2.002-2.534 0-1.778.826-2.52 2.002-2.52s2.002.742 2.002 2.52c0 1.792-.826 2.534-2.002 2.534zm12.3759-7.517995v1.623995c0 1.358 0 2.548.042 3.794-.322-.672-.658-1.344-.966-1.876l-2.058-3.541995h-3.29v9.968045h3.08v-1.62405c0-1.274-.014-2.408-.056-3.584.28.546.588 1.078.938 1.666l2.1 3.54205h3.29v-9.968045zm10.4727 0v1.623995c0 1.358 0 2.548.042 3.794-.322-.672-.658-1.344-.966-1.876l-2.058-3.541995h-3.29v9.968045h3.08v-1.62405c0-1.274-.014-2.408-.056-3.584.28.546.588 1.078.938 1.666l2.1 3.54205h3.29v-9.968045zm12.3766 2.715995v-2.715995h-8.176v9.968045h8.176v-2.71605h-5.012v-.938h4.634v-2.618h-4.634v-.98zm5.7878 7.50405c2.772 0 4.774-1.69405 5.18-4.03205h-3.234c-.238.952-.938 1.344-1.792 1.344-1.232 0-2.044-.784-2.044-2.562 0-1.736.756-2.506 2.002-2.506.91 0 1.582.434 1.82 1.358h3.262c-.448-2.436-2.086-4.045996-5.012-4.045996-3.29 0-5.348 2.015996-5.348 5.193996 0 3.206 2.128 5.25005 5.166 5.25005zm13.876-10.220045h-8.68v2.715995h2.758v7.25205h3.164v-7.25205h2.758zm14.406 0-.56 2.953995c-.224 1.176-.434 2.366-.644 3.514-.196-1.148-.434-2.338-.658-3.514l-.588-2.953995h-3.038l-.588 2.953995c-.224 1.176-.462 2.366-.658 3.514-.21-1.148-.42-2.338-.644-3.514l-.56-2.953995h-3.234l2.632 9.968045h3.388l.658-3.03805c.196-.868.364-1.736.532-2.59.154.854.322 1.722.518 2.59l.658 3.03805h3.388l2.632-9.968045zm9.526 9.968045h3.276l-3.57-9.968045h-3.864l-3.374 9.968045h3.164l.392-1.30205h3.584zm-3.304-3.61205.686-2.296.42-1.484c.126.49.28.994.42 1.484l.686 2.296zm10.1082.896v-7.251995h-3.1639v9.968045h7.4479v-2.71605zm8.217 0v-7.251995h-3.164v9.968045h7.448v-2.71605zm13.229-4.536v-2.715995h-8.176v9.968045h8.176v-2.71605h-5.012v-.938h4.634v-2.618h-4.634v-.98zm9.246-2.715995h-8.68v2.715995h2.758v7.25205h3.164v-7.25205h2.758z" fill="#000"/></svg>