<svg fill="none" height="52" viewBox="0 0 52 52" width="52" xmlns="http://www.w3.org/2000/svg"><path d="m15.372 19.507c1.3854-1.4137 3.039-2.5368 4.8638-3.3035 1.8249-.7667 3.7843-1.1616 5.7637-1.1616s3.9388.3949 5.7637 1.1616c1.8248.7667 3.4784 1.8898 4.8638 3.3035l.706.717c.1411.1439.2201.3375.2201.539s-.079.3951-.2201.539l-2.416 2.451c-.0346.0354-.076.0636-.1217.0828s-.0947.0291-.1443.0291-.0986-.0099-.1443-.0291-.0871-.0474-.1217-.0828l-.972-.986c-.9665-.9863-2.12-1.7699-3.3931-2.3048-1.273-.5349-2.64-.8104-4.0209-.8104s-2.7479.2755-4.0209.8104c-1.2731.5349-2.4266 1.3185-3.3931 2.3048l-1.04 1.056c-.0346.0354-.076.0636-.1217.0828s-.0947.0291-.1443.0291-.0986-.0099-.1443-.0291-.0871-.0474-.1217-.0828l-2.417-2.451c-.1411-.1439-.2201-.3375-.2201-.539s.079-.3951.2201-.539zm26.252 5.07 2.15 2.181c.1411.1439.2201.3374.2201.539 0 .2015-.079.3951-.2201.539l-9.697 9.837c-.0693.0707-.152.1269-.2432.1653-.0913.0383-.1893.0581-.2883.0581s-.197-.0198-.2883-.0581c-.0912-.0384-.1739-.0946-.2432-.1653l-6.882-6.981c-.0173-.0177-.038-.0318-.0608-.0414-.0229-.0096-.0474-.0146-.0722-.0146s-.0493.005-.0721.0146c-.0229.0096-.0436.0237-.0609.0414l-6.882 6.98c-.0693.0707-.152.1269-.2432.1653-.0913.0383-.1893.0581-.2883.0581s-.197-.0198-.2883-.0581c-.0912-.0384-.1739-.0946-.2432-.1653l-9.697-9.835c-.14108-.1439-.22011-.3375-.22011-.539 0-.2016.07903-.3951.22011-.539l2.15-2.181c.0693-.0707.152-.1269.2432-.1653.0913-.0383.1893-.0581.2883-.0581s.197.0198.2883.0581c.0912.0384.1739.0946.2432.1653l6.883 6.981c.0173.0176.0379.0315.0607.041.0227.0096.0471.0145.0718.0145s.0491-.0049.0718-.0145c.0228-.0095.0434-.0234.0607-.041l6.883-6.981c.0693-.0706.1519-.1266.2431-.1649.0911-.0383.189-.058.2879-.058s.1968.0197.2879.058c.0912.0383.1738.0943.2431.1649l6.883 6.981c.0173.0177.038.0318.0609.0414.0228.0096.0473.0146.0721.0146s.0493-.005.0722-.0146c.0228-.0096.0435-.0237.0608-.0414l6.882-6.981c.0693-.0707.152-.1269.2432-.1653.0913-.0383.1893-.0581.2883-.0581s.197.0198.2883.0581c.0912.0384.1739.0946.2432.1653z" fill="#fff"/></svg>