<svg width="64" height="64" viewBox="0 0 64 64" fill="none" xmlns="http://www.w3.org/2000/svg">
<rect width="64" height="64" rx="32" fill="black"/>
<path fill-rule="evenodd" clip-rule="evenodd" d="M32.0057 60.8059C47.9112 60.8059 60.8052 47.912 60.8052 32.0065C60.8052 16.101 47.9112 3.20703 32.0057 3.20703C16.1003 3.20703 3.2063 16.101 3.2063 32.0065C3.2063 47.912 16.1003 60.8059 32.0057 60.8059ZM57.8566 32.0068C57.8566 46.2838 46.2827 57.8577 32.0057 57.8577C17.7286 57.8577 6.15472 46.2838 6.15472 32.0068C6.15472 17.7297 17.7286 6.15582 32.0057 6.15582C46.2827 6.15582 57.8566 17.7297 57.8566 32.0068ZM15.8527 27.0994C15.8527 23.463 18.8005 20.5151 22.4369 20.5151L41.4242 20.5151C45.0606 20.5151 48.0085 23.463 48.0085 27.0994V31.8502C48.0085 34.0995 46.185 35.9229 43.9357 35.9229C41.6864 35.9229 39.863 37.7464 39.863 39.9957V41.3369C39.863 44.327 37.4391 46.7509 34.449 46.7509H29.1991C26.209 46.7509 23.7851 44.327 23.7851 41.3369V39.8891C23.7851 37.6987 22.0093 35.9229 19.8189 35.9229C17.6284 35.9229 15.8527 34.1472 15.8527 31.9567L15.8527 27.0994ZM28.8373 28.6491C28.8373 31.4469 26.7658 33.7149 24.2104 33.7149C21.6551 33.7149 19.5836 31.4469 19.5836 28.6491C19.5836 25.8514 21.6551 23.5834 24.2104 23.5834C26.7658 23.5834 28.8373 25.8514 28.8373 28.6491ZM39.5832 33.7149C42.1385 33.7149 44.21 31.4469 44.21 28.6491C44.21 25.8514 42.1385 23.5834 39.5832 23.5834C37.0279 23.5834 34.9564 25.8514 34.9564 28.6491C34.9564 31.4469 37.0279 33.7149 39.5832 33.7149ZM27.3751 36.1875C27.3751 35.5517 27.8906 35.0362 28.5264 35.0362H29.0305C30.3022 35.0362 31.3331 36.0671 31.3331 37.3388V37.8429C31.3331 38.4787 30.8176 38.9942 30.1818 38.9942H29.6777C28.406 38.9942 27.3751 37.9633 27.3751 36.6916L27.3751 36.1875ZM34.7901 35.0128C33.5185 35.0128 32.4876 36.0437 32.4876 37.3154V37.8195C32.4876 38.4553 33.003 38.9708 33.6388 38.9708H34.143C35.4146 38.9708 36.4455 37.9399 36.4455 36.6682V36.1641C36.4455 35.5283 35.9301 35.0128 35.2942 35.0128H34.7901Z" fill="white"/>
</svg>
